Database initialized at /app/server/data/nvr.sqlite
Database initialized
Starting recording for feed Garage1 (7)
Starting recording for feed Office (1)
Starting detection for feed Garage1
Starting detection for feed Office
Server running on port 7000
Using sensitivity: medium (threshold: 0.008)
Using sensitivity: medium (threshold: 0.008)
Recording started for Garage1: ffmpeg -rtsp_transport tcp -i rtsp://wyliebutler:ler542111@192.168.2.51:554/stream1 -y -c:v libx264 -vf scale=-1:720 -f segment -segment_time 1800 -segment_format mp4 -reset_timestamps 1 -strftime 1 -movflags +faststart /app/server/recordings/7/%Y-%m-%d_%H-%M-%S.mp4
Detection started for Office: ffmpeg -rtsp_transport tcp -r 4 -i rtsp://thingino:thingino@192.168.2.80:554/ch0 -y -vf select=gt(scene\,0.008),showinfo -f null /dev/null
Detection started for Garage1: ffmpeg -rtsp_transport tcp -r 4 -i rtsp://wyliebutler:ler542111@192.168.2.51:554/stream1 -y -vf select=gt(scene\,0.008),showinfo -f null /dev/null
Recording started for Office: ffmpeg -rtsp_transport tcp -i rtsp://thingino:thingino@192.168.2.80:554/ch0 -y -c:v libx264 -vf scale=-1:720 -f segment -segment_time 1800 -segment_format mp4 -reset_timestamps 1 -strftime 1 -movflags +faststart /app/server/recordings/1/%Y-%m-%d_%H-%M-%S.mp4
[Motion Debug] Motion detected on Office: [Parsed_showinfo_1 @ 0x56007fe55100] n:   0 pts:      2 pts_time:0.5     pos:       -1 fmt:yuv420p sar:0/1 s:1920x1080 i:P iskey:1 type:I checksum:A2E18642 plane_checksum:[6B899B63 2A7F8B30 8DAD5FA0] mean:[116 124 128] stdev:[52.4 18.9 14.4]
Motion detected on Office! Sending notification...
[Motion Debug] Motion detected on Office: [Parsed_showinfo_1 @ 0x56007fe55100] n:   1 pts:      3 pts_time:0.75    pos:       -1 fmt:yuv420p sar:0/1 s:1920x1080 i:P iskey:0 type:P checksum:9873B631 plane_checksum:[D3BA435D D166BF62 48BFB363] mean:[116 124 128] stdev:[52.4 18.9 14.4]
[Motion] Process lock active for feed 1, skipping duplicate event.
[Motion Debug] Motion detected on Office: [Parsed_showinfo_1 @ 0x56007fe55100] n:   2 pts:     15 pts_time:3.75    pos:       -1 fmt:yuv420p sar:0/1 s:1920x1080 i:P iskey:1 type:I checksum:0849F7AC plane_checksum:[4BBBECAB A4A58A58 2801809A] mean:[116 124 128] stdev:[52.3 18.9 14.4]
[Motion] Process lock active for feed 1, skipping duplicate event.
[Motion Debug] Motion detected on Garage1: [Parsed_showinfo_1 @ 0x5563fafa1f40] n:   0 pts:     30 pts_time:7.5     pos:       -1 fmt:yuv420p sar:0/1 s:2304x1296 i:P iskey:1 type:I checksum:29400DD8 plane_checksum:[727EA79B 9D89E161 E12984BE] mean:[114 127 128] stdev:[57.1 4.8 5.0]
Motion detected on Garage1! Sending notification...
System is in Home mode, skipping email notification.
[Motion Debug] Motion detected on Office: [Parsed_showinfo_1 @ 0x56007fe55100] n:   3 pts:     29 pts_time:7.25    pos:       -1 fmt:yuv420p sar:0/1 s:1920x1080 i:P iskey:1 type:I checksum:B6EB565B plane_checksum:[12F029B4 ED95372B AD6CF56D] mean:[116 124 128] stdev:[52.2 18.9 14.5]
[Motion] Process lock active for feed 1, skipping duplicate event.
[Motion Debug] Motion detected on Office: [Parsed_showinfo_1 @ 0x56007fe55100] n:   4 pts:     30 pts_time:7.5     pos:       -1 fmt:yuv420p sar:0/1 s:1920x1080 i:P iskey:0 type:P checksum:44969399 plane_checksum:[1EF9C5FA 8226E0A6 C4B6ECDB] mean:[116 124 128] stdev:[52.2 19.0 14.5]
[Motion] Process lock active for feed 1, skipping duplicate event.
Incoming WS connection: /stream?url=rtsp%3A%2F%2Fthingino%3Athingino%40192.168.2.80%3A554%2Fch0
Client connected to stream: rtsp://thingino:thingino@192.168.2.80:554/ch0
Starting ffmpeg for rtsp://thingino:thingino@192.168.2.80:554/ch0
FFmpeg started: ffmpeg -rtsp_transport tcp -analyzeduration 1000000 -probesize 1000000 -fflags nobuffer -flags low_delay -strict experimental -i rtsp://thingino:thingino@192.168.2.80:554/ch0 -f mpegts -codec:v mpeg1video -b:v 2000k -r 25 -bf 0 -q:v 2 -tune zerolatency -preset ultrafast pipe:1
[Motion Debug] Motion detected on Office: [Parsed_showinfo_1 @ 0x56007fe55100] n:   5 pts:     32 pts_time:8       pos:       -1 fmt:yuv420p sar:0/1 s:1920x1080 i:P iskey:1 type:I checksum:778B67C9 plane_checksum:[0FAE1B74 218DDB96 57B670B0] mean:[116 124 128] stdev:[52.1 19.0 14.5]
[Motion] Process lock active for feed 1, skipping duplicate event.
[Motion Debug] Motion detected on Office: [Parsed_showinfo_1 @ 0x56007fe55100] n:   6 pts:     33 pts_time:8.25    pos:       -1 fmt:yuv420p sar:0/1 s:1920x1080 i:P iskey:0 type:P checksum:A5F79592 plane_checksum:[8C9C0D00 B1F15DAE 8DD22AE4] mean:[116 124 128] stdev:[52.1 19.0 14.5]
[Motion] Process lock active for feed 1, skipping duplicate event.
[Motion Debug] Motion detected on Office: [Parsed_showinfo_1 @ 0x56007fe55100] n:   7 pts:     41 pts_time:10.25   pos:       -1 fmt:yuv420p sar:0/1 s:1920x1080 i:P iskey:1 type:I checksum:FE5C0A40 plane_checksum:[321B5E10 4E046776 CAF244AB] mean:[116 124 128] stdev:[52.4 18.8 14.3]
[Motion] Process lock active for feed 1, skipping duplicate event.
Incoming WS connection: /stream?url=rtsp%3A%2F%2Fwyliebutler%3Aler542111%40192.168.2.51%3A554%2Fstream1
Client connected to stream: rtsp://wyliebutler:ler542111@192.168.2.51:554/stream1
Starting ffmpeg for rtsp://wyliebutler:ler542111@192.168.2.51:554/stream1
FFmpeg started: ffmpeg -rtsp_transport tcp -analyzeduration 1000000 -probesize 1000000 -fflags nobuffer -flags low_delay -strict experimental -i rtsp://wyliebutler:ler542111@192.168.2.51:554/stream1 -f mpegts -codec:v mpeg1video -b:v 2000k -r 25 -bf 0 -q:v 2 -tune zerolatency -preset ultrafast pipe:1
Client disconnected from stream: rtsp://wyliebutler:ler542111@192.168.2.51:554/stream1
System is in Home mode, skipping email notification.
[Motion Debug] Motion detected on Garage1: [Parsed_showinfo_1 @ 0x5563fafa1f40] n:   1 pts:     60 pts_time:15      pos:       -1 fmt:yuv420p sar:0/1 s:2304x1296 i:P iskey:1 type:I checksum:17BEC28D plane_checksum:[34E49018 2FE8BACC 2CCE779A] mean:[114 127 128] stdev:[57.1 4.8 5.0]
[Motion] Process lock active for feed 7, skipping duplicate event.
[Motion Debug] Motion detected on Office: [Parsed_showinfo_1 @ 0x56007fe55100] n:   8 pts:     49 pts_time:12.25   pos:       -1 fmt:yuv420p sar:0/1 s:1920x1080 i:P iskey:1 type:I checksum:BA8D77E0 plane_checksum:[16B373C7 FC127D70 FA0C869A] mean:[116 124 128] stdev:[52.4 18.8 14.3]
[Motion] Process lock active for feed 1, skipping duplicate event.
[Motion Debug] Motion detected on Office: [Parsed_showinfo_1 @ 0x56007fe55100] n:   9 pts:     54 pts_time:13.5    pos:       -1 fmt:yuv420p sar:0/1 s:1920x1080 i:P iskey:1 type:I checksum:CF7E5216 plane_checksum:[4743A29B 8AE0E169 02EACDF4] mean:[116 124 128] stdev:[52.3 18.8 14.4]
[Motion] Process lock active for feed 1, skipping duplicate event.
[Motion Debug] Motion detected on Office: [Parsed_showinfo_1 @ 0x56007fe55100] n:  10 pts:     67 pts_time:16.75   pos:       -1 fmt:yuv420p sar:0/1 s:1920x1080 i:P iskey:1 type:I checksum:58B6A7FF plane_checksum:[2977D459 0EF7623C 153F715B] mean:[115 124 128] stdev:[52.3 18.8 14.4]
[Motion] Process lock active for feed 1, skipping duplicate event.
[Motion Debug] Motion detected on Garage1: [Parsed_showinfo_1 @ 0x5563fafa1f40] n:   2 pts:     90 pts_time:22.5    pos:       -1 fmt:yuv420p sar:0/1 s:2304x1296 i:P iskey:1 type:I checksum:CFC0C5F0 plane_checksum:[A6507E40 E85DD43B F73D7366] mean:[114 127 128] stdev:[57.1 4.8 5.0]
[Motion] Process lock active for feed 7, skipping duplicate event.
[Motion Debug] Motion detected on Office: [Parsed_showinfo_1 @ 0x56007fe55100] n:  11 pts:     81 pts_time:20.25   pos:       -1 fmt:yuv420p sar:0/1 s:1920x1080 i:P iskey:1 type:I checksum:FC82851B plane_checksum:[C483C52A 4324F352 4309CC81] mean:[115 124 128] stdev:[52.3 18.8 14.4]
[Motion] Process lock active for feed 1, skipping duplicate event.
[Motion Debug] Motion detected on Office: [Parsed_showinfo_1 @ 0x56007fe55100] n:  12 pts:     95 pts_time:23.75   pos:       -1 fmt:yuv420p sar:0/1 s:1920x1080 i:P iskey:1 type:I checksum:03EC4190 plane_checksum:[F92E4268 418F3A26 5BF1C4F3] mean:[116 124 128] stdev:[52.3 18.8 14.4]
[Motion] Process lock active for feed 1, skipping duplicate event.
[Motion Debug] Motion detected on Garage1: [Parsed_showinfo_1 @ 0x5563fafa1f40] n:   3 pts:    120 pts_time:30      pos:       -1 fmt:yuv420p sar:0/1 s:2304x1296 i:P iskey:1 type:I checksum:CD2FD265 plane_checksum:[08BD68EF 3F2BC865 782CA102] mean:[114 127 128] stdev:[57.1 4.8 5.0]
[Motion Debug] Motion detected on Office: [Parsed_showinfo_1 @ 0x56007fe55100] n:  13 pts:    109 pts_time:27.25   pos:       -1 fmt:yuv420p sar:0/1 s:1920x1080 i:P iskey:1 type:I checksum:4AA7D8A6 plane_checksum:[0E76D2A3 4E735A7C 1C91AB78] mean:[115 124 128] stdev:[52.3 19.0 14.4]
[Motion] Process lock active for feed 1, skipping duplicate event.
Incoming WS connection: /stream?url=rtsp%3A%2F%2Fwyliebutler%3Aler542111%40192.168.2.51%3A554%2Fstream1
Client connected to stream: rtsp://wyliebutler:ler542111@192.168.2.51:554/stream1
Starting ffmpeg for rtsp://wyliebutler:ler542111@192.168.2.51:554/stream1
FFmpeg started: ffmpeg -rtsp_transport tcp -analyzeduration 1000000 -probesize 1000000 -fflags nobuffer -flags low_delay -strict experimental -i rtsp://wyliebutler:ler542111@192.168.2.51:554/stream1 -f mpegts -codec:v mpeg1video -b:v 2000k -r 25 -bf 0 -q:v 2 -tune zerolatency -preset ultrafast pipe:1
Client disconnected from stream: rtsp://wyliebutler:ler542111@192.168.2.51:554/stream1
[Motion Debug] Motion detected on Garage1: [Parsed_showinfo_1 @ 0x5563fafa1f40] n:   4 pts:    150 pts_time:37.5    pos:       -1 fmt:yuv420p sar:0/1 s:2304x1296 i:P iskey:1 type:I checksum:B1E31609 plane_checksum:[82D3C7FC 930DD276 22787B79] mean:[114 127 128] stdev:[57.0 4.8 5.0]
[Motion Debug] Motion detected on Garage1: [Parsed_showinfo_1 @ 0x5563fafa1f40] n:   5 pts:    180 pts_time:45      pos:       -1 fmt:yuv420p sar:0/1 s:2304x1296 i:P iskey:1 type:I checksum:D877A0C1 plane_checksum:[7BAB3021 469EF8ED 4AD077A4] mean:[114 127 128] stdev:[57.1 4.8 5.0]
[Motion Debug] Motion detected on Office: [Parsed_showinfo_1 @ 0x56007fe55100] n:  14 pts:    169 pts_time:42.25   pos:       -1 fmt:yuv420p sar:0/1 s:1920x1080 i:P iskey:1 type:I checksum:BDF785E1 plane_checksum:[5031523B 6C1992AE FF9AA0E9] mean:[115 124 128] stdev:[52.4 18.8 14.4]
[Motion Debug] Motion detected on Garage1: [Parsed_showinfo_1 @ 0x5563fafa1f40] n:   6 pts:    210 pts_time:52.5    pos:       -1 fmt:yuv420p sar:0/1 s:2304x1296 i:P iskey:1 type:I checksum:99D491F5 plane_checksum:[A5B43081 5A69E561 0AB17C04] mean:[114 127 128] stdev:[57.1 4.8 5.0]
Incoming WS connection: /stream?url=rtsp%3A%2F%2Fwyliebutler%3Aler542111%40192.168.2.51%3A554%2Fstream1
Client connected to stream: rtsp://wyliebutler:ler542111@192.168.2.51:554/stream1
Starting ffmpeg for rtsp://wyliebutler:ler542111@192.168.2.51:554/stream1
FFmpeg started: ffmpeg -rtsp_transport tcp -analyzeduration 1000000 -probesize 1000000 -fflags nobuffer -flags low_delay -strict experimental -i rtsp://wyliebutler:ler542111@192.168.2.51:554/stream1 -f mpegts -codec:v mpeg1video -b:v 2000k -r 25 -bf 0 -q:v 2 -tune zerolatency -preset ultrafast pipe:1
Client disconnected from stream: rtsp://wyliebutler:ler542111@192.168.2.51:554/stream1
[Motion Debug] Motion detected on Garage1: [Parsed_showinfo_1 @ 0x5563fafa1f40] n:   7 pts:    240 pts_time:60      pos:       -1 fmt:yuv420p sar:0/1 s:2304x1296 i:P iskey:1 type:I checksum:BF17CD34 plane_checksum:[4CF46530 281ED6A2 20069153] mean:[114 127 128] stdev:[57.1 4.8 5.0]
[Motion Debug] Motion detected on Office: [Parsed_showinfo_1 @ 0x56007fe55100] n:  15 pts:    229 pts_time:57.25   pos:       -1 fmt:yuv420p sar:0/1 s:1920x1080 i:P iskey:1 type:I checksum:568744CA plane_checksum:[6C580551 7EC4A7AC C43A97BE] mean:[116 124 128] stdev:[52.4 18.8 14.4]
[Motion Debug] Motion detected on Garage1: [Parsed_showinfo_1 @ 0x5563fafa1f40] n:   8 pts:    270 pts_time:67.5    pos:       -1 fmt:yuv420p sar:0/1 s:2304x1296 i:P iskey:1 type:I checksum:6F63F76C plane_checksum:[10E389F9 DC16FBB8 D95871AC] mean:[114 127 128] stdev:[57.1 4.8 5.0]
[Motion Debug] Motion detected on Garage1: [Parsed_showinfo_1 @ 0x5563fafa1f40] n:   9 pts:    300 pts_time:75      pos:       -1 fmt:yuv420p sar:0/1 s:2304x1296 i:P iskey:1 type:I checksum:304BC0A4 plane_checksum:[3D49747C 588BE6AB 6B9A656E] mean:[114 127 128] stdev:[57.1 4.8 5.0]
Incoming WS connection: /stream?url=rtsp%3A%2F%2Fwyliebutler%3Aler542111%40192.168.2.51%3A554%2Fstream1
Client connected to stream: rtsp://wyliebutler:ler542111@192.168.2.51:554/stream1
Starting ffmpeg for rtsp://wyliebutler:ler542111@192.168.2.51:554/stream1
FFmpeg started: ffmpeg -rtsp_transport tcp -analyzeduration 1000000 -probesize 1000000 -fflags nobuffer -flags low_delay -strict experimental -i rtsp://wyliebutler:ler542111@192.168.2.51:554/stream1 -f mpegts -codec:v mpeg1video -b:v 2000k -r 25 -bf 0 -q:v 2 -tune zerolatency -preset ultrafast pipe:1
Client disconnected from stream: rtsp://wyliebutler:ler542111@192.168.2.51:554/stream1
[Motion Debug] Motion detected on Garage1: [Parsed_showinfo_1 @ 0x5563fafa1f40] n:  10 pts:    330 pts_time:82.5    pos:       -1 fmt:yuv420p sar:0/1 s:2304x1296 i:P iskey:1 type:I checksum:752E33A4 plane_checksum:[730DBA5B 4BC1FC73 5B697CB8] mean:[114 127 128] stdev:[57.1 4.8 5.0]
[Motion Debug] Motion detected on Office: [Parsed_showinfo_1 @ 0x56007fe55100] n:  16 pts:    289 pts_time:72.25   pos:       -1 fmt:yuv420p sar:0/1 s:1920x1080 i:P iskey:1 type:I checksum:9D400B15 plane_checksum:[7CE91624 E1559126 4F8663BC] mean:[115 124 128] stdev:[52.3 18.8 14.3]
[Motion Debug] Motion detected on Garage1: [Parsed_showinfo_1 @ 0x5563fafa1f40] n:  11 pts:    360 pts_time:90      pos:       -1 fmt:yuv420p sar:0/1 s:2304x1296 i:P iskey:1 type:I checksum:D7A2B9D8 plane_checksum:[4C6A19AB 0B091187 33928EA6] mean:[114 127 128] stdev:[57.0 4.8 5.0]
Incoming WS connection: /stream?url=rtsp%3A%2F%2Fwyliebutler%3Aler542111%40192.168.2.51%3A554%2Fstream1
Client connected to stream: rtsp://wyliebutler:ler542111@192.168.2.51:554/stream1
Starting ffmpeg for rtsp://wyliebutler:ler542111@192.168.2.51:554/stream1
FFmpeg started: ffmpeg -rtsp_transport tcp -analyzeduration 1000000 -probesize 1000000 -fflags nobuffer -flags low_delay -strict experimental -i rtsp://wyliebutler:ler542111@192.168.2.51:554/stream1 -f mpegts -codec:v mpeg1video -b:v 2000k -r 25 -bf 0 -q:v 2 -tune zerolatency -preset ultrafast pipe:1
Client disconnected from stream: rtsp://wyliebutler:ler542111@192.168.2.51:554/stream1
[Motion Debug] Motion detected on Garage1: [Parsed_showinfo_1 @ 0x5563fafa1f40] n:  12 pts:    390 pts_time:97.5    pos:       -1 fmt:yuv420p sar:0/1 s:2304x1296 i:P iskey:1 type:I checksum:8F8D0A20 plane_checksum:[D4CE8F6C 42F20457 B8E4764E] mean:[114 127 128] stdev:[57.0 4.8 5.0]
[Motion Debug] Motion detected on Office: [Parsed_showinfo_1 @ 0x56007fe55100] n:  17 pts:    349 pts_time:87.25   pos:       -1 fmt:yuv420p sar:0/1 s:1920x1080 i:P iskey:1 type:I checksum:78CB969A plane_checksum:[DBAB48A3 F8AC7C4B B353D19D] mean:[115 124 128] stdev:[52.2 19.1 14.5]
[Motion Debug] Motion detected on Office: [Parsed_showinfo_1 @ 0x56007fe55100] n:  18 pts:    350 pts_time:87.5    pos:       -1 fmt:yuv420p sar:0/1 s:1920x1080 i:P iskey:0 type:P checksum:E0AD8DC2 plane_checksum:[08EC8D41 AD33327D B3B6CDF5] mean:[115 124 128] stdev:[52.3 19.1 14.5]
Client disconnected from stream: rtsp://thingino:thingino@192.168.2.80:554/ch0
No clients left for rtsp://thingino:thingino@192.168.2.80:554/ch0, stopping stream.
[Motion Debug] Motion detected on Garage1: [Parsed_showinfo_1 @ 0x5563fafa1f40] n:  13 pts:    420 pts_time:105     pos:       -1 fmt:yuv420p sar:0/1 s:2304x1296 i:P iskey:1 type:I checksum:785B1656 plane_checksum:[510F8FE4 9AC91C9D E11669C6] mean:[114 127 128] stdev:[57.0 4.8 5.0]
Fetching settings: {
  motion_sensitivity: 'medium',
  smtp_user: 'wylie.butler@gmail.com',
  smtp_pass: 'jwzejrnocmphpudv',
  notification_email: 'wylie.butler@gmail.com',
  smtp_host: 'smtp.gmail.com',
  smtp_port: '587',
  theme: 'ocean',
  system_mode: 'home'
}
Fetching settings: {
  motion_sensitivity: 'medium',
  smtp_user: 'wylie.butler@gmail.com',
  smtp_pass: 'jwzejrnocmphpudv',
  notification_email: 'wylie.butler@gmail.com',
  smtp_host: 'smtp.gmail.com',
  smtp_port: '587',
  theme: 'ocean',
  system_mode: 'home'
}
Incoming WS connection: /stream?url=rtsp%3A%2F%2Fthingino%3Athingino%40192.168.2.80%3A554%2Fch0
Client connected to stream: rtsp://thingino:thingino@192.168.2.80:554/ch0
Starting ffmpeg for rtsp://thingino:thingino@192.168.2.80:554/ch0
FFmpeg started: ffmpeg -rtsp_transport tcp -analyzeduration 1000000 -probesize 1000000 -fflags nobuffer -flags low_delay -strict experimental -i rtsp://thingino:thingino@192.168.2.80:554/ch0 -f mpegts -codec:v mpeg1video -b:v 2000k -r 25 -bf 0 -q:v 2 -tune zerolatency -preset ultrafast pipe:1
Incoming WS connection: /stream?url=rtsp%3A%2F%2Fwyliebutler%3Aler542111%40192.168.2.51%3A554%2Fstream1
Client connected to stream: rtsp://wyliebutler:ler542111@192.168.2.51:554/stream1
Starting ffmpeg for rtsp://wyliebutler:ler542111@192.168.2.51:554/stream1
FFmpeg started: ffmpeg -rtsp_transport tcp -analyzeduration 1000000 -probesize 1000000 -fflags nobuffer -flags low_delay -strict experimental -i rtsp://wyliebutler:ler542111@192.168.2.51:554/stream1 -f mpegts -codec:v mpeg1video -b:v 2000k -r 25 -bf 0 -q:v 2 -tune zerolatency -preset ultrafast pipe:1
Client disconnected from stream: rtsp://wyliebutler:ler542111@192.168.2.51:554/stream1
[Motion Debug] Motion detected on Garage1: [Parsed_showinfo_1 @ 0x5563fafa1f40] n:  14 pts:    450 pts_time:112.5   pos:       -1 fmt:yuv420p sar:0/1 s:2304x1296 i:P iskey:1 type:I checksum:6CBE66D7 plane_checksum:[67EDCEAD 9DA60EB0 BFDC896B] mean:[114 127 128] stdev:[57.1 4.8 5.0]
[Motion Debug] Motion detected on Office: [Parsed_showinfo_1 @ 0x56007fe55100] n:  19 pts:    400 pts_time:100     pos:       -1 fmt:yuv420p sar:0/1 s:1920x1080 i:P iskey:1 type:I checksum:72C5309C plane_checksum:[6911BD98 A3BCB1EC A46EC0FA] mean:[116 124 128] stdev:[52.3 18.9 14.4]
[Motion Debug] Motion detected on Office: [Parsed_showinfo_1 @ 0x56007fe55100] n:  20 pts:    402 pts_time:100.5   pos:       -1 fmt:yuv420p sar:0/1 s:1920x1080 i:P iskey:1 type:I checksum:F749F741 plane_checksum:[BE4F5B0B E70703D4 27B69862] mean:[115 124 128] stdev:[52.3 18.8 14.4]
[Motion Debug] Motion detected on Office: [Parsed_showinfo_1 @ 0x56007fe55100] n:  21 pts:    403 pts_time:100.75  pos:       -1 fmt:yuv420p sar:0/1 s:1920x1080 i:P iskey:0 type:P checksum:D3C703EA plane_checksum:[4B6D3B51 357F135A FEE6B530] mean:[115 124 128] stdev:[52.4 19.0 14.4]
[Motion Debug] Motion detected on Office: [Parsed_showinfo_1 @ 0x56007fe55100] n:  22 pts:    415 pts_time:103.75  pos:       -1 fmt:yuv420p sar:0/1 s:1920x1080 i:P iskey:1 type:I checksum:7E28A1A2 plane_checksum:[41C0610B 89C8DF4E 2EE2613A] mean:[115 124 128] stdev:[52.2 18.8 14.4]
[Motion Debug] Motion detected on Garage1: [Parsed_showinfo_1 @ 0x5563fafa1f40] n:  15 pts:    480 pts_time:120     pos:       -1 fmt:yuv420p sar:0/1 s:2304x1296 i:P iskey:1 type:I checksum:0F8D8007 plane_checksum:[9000C4F7 09082945 039991BC] mean:[114 127 128] stdev:[57.1 4.8 5.0]
[Motion Debug] Motion detected on Office: [Parsed_showinfo_1 @ 0x56007fe55100] n:  23 pts:    429 pts_time:107.25  pos:       -1 fmt:yuv420p sar:0/1 s:1920x1080 i:P iskey:1 type:I checksum:CA71AF43 plane_checksum:[290703B7 1F5E700F 583F3B7D] mean:[115 124 128] stdev:[52.1 19.0 14.5]
[Motion Debug] Motion detected on Office: [Parsed_showinfo_1 @ 0x56007fe55100] n:  24 pts:    443 pts_time:110.75  pos:       -1 fmt:yuv420p sar:0/1 s:1920x1080 i:P iskey:1 type:I checksum:6B6E125D plane_checksum:[4773AA9C F1EF0E4A 10815968] mean:[115 123 128] stdev:[52.4 19.1 14.5]
[Motion Debug] Motion detected on Garage1: [Parsed_showinfo_1 @ 0x5563fafa1f40] n:  16 pts:    510 pts_time:127.5   pos:       -1 fmt:yuv420p sar:0/1 s:2304x1296 i:P iskey:1 type:I checksum:8738EA67 plane_checksum:[1A15715F 51DD0278 FF6B7690] mean:[114 127 128] stdev:[57.1 4.8 5.0]
Incoming WS connection: /stream?url=rtsp%3A%2F%2Fwyliebutler%3Aler542111%40192.168.2.51%3A554%2Fstream1
Client connected to stream: rtsp://wyliebutler:ler542111@192.168.2.51:554/stream1
Starting ffmpeg for rtsp://wyliebutler:ler542111@192.168.2.51:554/stream1
FFmpeg started: ffmpeg -rtsp_transport tcp -analyzeduration 1000000 -probesize 1000000 -fflags nobuffer -flags low_delay -strict experimental -i rtsp://wyliebutler:ler542111@192.168.2.51:554/stream1 -f mpegts -codec:v mpeg1video -b:v 2000k -r 25 -bf 0 -q:v 2 -tune zerolatency -preset ultrafast pipe:1
[Motion Debug] Motion detected on Office: [Parsed_showinfo_1 @ 0x56007fe55100] n:  25 pts:    457 pts_time:114.25  pos:       -1 fmt:yuv420p sar:0/1 s:1920x1080 i:P iskey:1 type:I checksum:B3C28EB6 plane_checksum:[E161C9B6 D981735F B3AE5192] mean:[115 124 128] stdev:[52.3 19.0 14.5]
Client disconnected from stream: rtsp://wyliebutler:ler542111@192.168.2.51:554/stream1
[Motion Debug] Motion detected on Garage1: [Parsed_showinfo_1 @ 0x5563fafa1f40] n:  17 pts:    540 pts_time:135     pos:       -1 fmt:yuv420p sar:0/1 s:2304x1296 i:P iskey:1 type:I checksum:EFB9532C plane_checksum:[AE0BE953 E6E8FD81 5DC46C3A] mean:[114 127 128] stdev:[57.1 4.8 5.0]
[Motion Debug] Motion detected on Garage1: [Parsed_showinfo_1 @ 0x5563fafa1f40] n:  18 pts:    570 pts_time:142.5   pos:       -1 fmt:yuv420p sar:0/1 s:2304x1296 i:P iskey:1 type:I checksum:D8470B0A plane_checksum:[AFA19A69 1BEF0AA3 15FD65EF] mean:[114 127 128] stdev:[57.1 4.8 5.0]
[Motion Debug] Motion detected on Office: [Parsed_showinfo_1 @ 0x56007fe55100] n:  26 pts:    517 pts_time:129.25  pos:       -1 fmt:yuv420p sar:0/1 s:1920x1080 i:P iskey:1 type:I checksum:3D8128A0 plane_checksum:[6230C59C 60EF15FC BCD94CF9] mean:[115 123 128] stdev:[52.4 18.9 14.4]
[Motion Debug] Motion detected on Garage1: [Parsed_showinfo_1 @ 0x5563fafa1f40] n:  19 pts:    600 pts_time:150     pos:       -1 fmt:yuv420p sar:0/1 s:2304x1296 i:P iskey:1 type:I checksum:2534B64B plane_checksum:[D95308D4 65733C90 CEDA70E7] mean:[114 127 128] stdev:[57.0 4.8 5.0]
Incoming WS connection: /stream?url=rtsp%3A%2F%2Fwyliebutler%3Aler542111%40192.168.2.51%3A554%2Fstream1
Client connected to stream: rtsp://wyliebutler:ler542111@192.168.2.51:554/stream1
Starting ffmpeg for rtsp://wyliebutler:ler542111@192.168.2.51:554/stream1
FFmpeg started: ffmpeg -rtsp_transport tcp -analyzeduration 1000000 -probesize 1000000 -fflags nobuffer -flags low_delay -strict experimental -i rtsp://wyliebutler:ler542111@192.168.2.51:554/stream1 -f mpegts -codec:v mpeg1video -b:v 2000k -r 25 -bf 0 -q:v 2 -tune zerolatency -preset ultrafast pipe:1
Client disconnected from stream: rtsp://wyliebutler:ler542111@192.168.2.51:554/stream1
[Motion Debug] Motion detected on Garage1: [Parsed_showinfo_1 @ 0x5563fafa1f40] n:  20 pts:    630 pts_time:157.5   pos:       -1 fmt:yuv420p sar:0/1 s:2304x1296 i:P iskey:1 type:I checksum:6B381087 plane_checksum:[5517653C B5093883 71A972B9] mean:[114 127 128] stdev:[57.1 4.8 5.0]
[Motion Debug] Motion detected on Office: [Parsed_showinfo_1 @ 0x56007fe55100] n:  27 pts:    577 pts_time:144.25  pos:       -1 fmt:yuv420p sar:0/1 s:1920x1080 i:P iskey:1 type:I checksum:DE5CD55C plane_checksum:[11862943 2A775E41 8F874DD8] mean:[115 124 128] stdev:[52.2 18.8 14.4]
[Motion Debug] Motion detected on Garage1: [Parsed_showinfo_1 @ 0x5563fafa1f40] n:  21 pts:    660 pts_time:165     pos:       -1 fmt:yuv420p sar:0/1 s:2304x1296 i:P iskey:1 type:I checksum:33BBC8CB plane_checksum:[46906120 E07704E6 427762C5] mean:[114 127 128] stdev:[57.1 4.7 5.0]
Incoming WS connection: /stream?url=rtsp%3A%2F%2Fwyliebutler%3Aler542111%40192.168.2.51%3A554%2Fstream1
Client connected to stream: rtsp://wyliebutler:ler542111@192.168.2.51:554/stream1
Starting ffmpeg for rtsp://wyliebutler:ler542111@192.168.2.51:554/stream1
FFmpeg started: ffmpeg -rtsp_transport tcp -analyzeduration 1000000 -probesize 1000000 -fflags nobuffer -flags low_delay -strict experimental -i rtsp://wyliebutler:ler542111@192.168.2.51:554/stream1 -f mpegts -codec:v mpeg1video -b:v 2000k -r 25 -bf 0 -q:v 2 -tune zerolatency -preset ultrafast pipe:1
Client disconnected from stream: rtsp://wyliebutler:ler542111@192.168.2.51:554/stream1
[Motion Debug] Motion detected on Garage1: [Parsed_showinfo_1 @ 0x5563fafa1f40] n:  22 pts:    690 pts_time:172.5   pos:       -1 fmt:yuv420p sar:0/1 s:2304x1296 i:P iskey:1 type:I checksum:A9F0CCA6 plane_checksum:[30B432BA 3C2029CE D288701E] mean:[114 127 128] stdev:[57.1 4.8 5.0]
[Motion Debug] Motion detected on Garage1: [Parsed_showinfo_1 @ 0x5563fafa1f40] n:  23 pts:    720 pts_time:180     pos:       -1 fmt:yuv420p sar:0/1 s:2304x1296 i:P iskey:1 type:I checksum:77DFA12F plane_checksum:[E17B1A87 0224266C DAF8603C] mean:[114 127 128] stdev:[57.1 4.7 5.0]
[Motion Debug] Motion detected on Office: [Parsed_showinfo_1 @ 0x56007fe55100] n:  28 pts:    637 pts_time:159.25  pos:       -1 fmt:yuv420p sar:0/1 s:1920x1080 i:P iskey:1 type:I checksum:407358B3 plane_checksum:[C2C0ACBA D1B8E516 B7D9C6C5] mean:[116 123 128] stdev:[52.2 19.0 14.4]
[Motion Debug] Motion detected on Garage1: [Parsed_showinfo_1 @ 0x5563fafa1f40] n:  24 pts:    750 pts_time:187.5   pos:       -1 fmt:yuv420p sar:0/1 s:2304x1296 i:P iskey:1 type:I checksum:FED5D707 plane_checksum:[DA6E3963 0E313B11 0D3F6293] mean:[114 127 128] stdev:[57.1 4.7 5.0]
Incoming WS connection: /stream?url=rtsp%3A%2F%2Fwyliebutler%3Aler542111%40192.168.2.51%3A554%2Fstream1
Client connected to stream: rtsp://wyliebutler:ler542111@192.168.2.51:554/stream1
Starting ffmpeg for rtsp://wyliebutler:ler542111@192.168.2.51:554/stream1
FFmpeg started: ffmpeg -rtsp_transport tcp -analyzeduration 1000000 -probesize 1000000 -fflags nobuffer -flags low_delay -strict experimental -i rtsp://wyliebutler:ler542111@192.168.2.51:554/stream1 -f mpegts -codec:v mpeg1video -b:v 2000k -r 25 -bf 0 -q:v 2 -tune zerolatency -preset ultrafast pipe:1
Client disconnected from stream: rtsp://wyliebutler:ler542111@192.168.2.51:554/stream1
[Motion Debug] Motion detected on Garage1: [Parsed_showinfo_1 @ 0x5563fafa1f40] n:  25 pts:    780 pts_time:195     pos:       -1 fmt:yuv420p sar:0/1 s:2304x1296 i:P iskey:1 type:I checksum:7B59C63B plane_checksum:[098936C1 8BBE3F9F 6E924FDB] mean:[114 127 128] stdev:[57.1 4.7 5.0]
[Motion Debug] Motion detected on Office: [Parsed_showinfo_1 @ 0x56007fe55100] n:  29 pts:    697 pts_time:174.25  pos:       -1 fmt:yuv420p sar:0/1 s:1920x1080 i:P iskey:1 type:I checksum:3449173A plane_checksum:[CF604351 35AA6966 A05F6A74] mean:[115 124 128] stdev:[52.5 19.1 14.6]
[Motion Debug] Motion detected on Office: [Parsed_showinfo_1 @ 0x56007fe55100] n:  30 pts:    698 pts_time:174.5   pos:       -1 fmt:yuv420p sar:0/1 s:1920x1080 i:P iskey:0 type:P checksum:A5D2FF87 plane_checksum:[AE14F2F1 5819E362 119B2925] mean:[115 124 128] stdev:[52.5 19.1 14.6]
[Motion Debug] Motion detected on Garage1: [Parsed_showinfo_1 @ 0x5563fafa1f40] n:  26 pts:    810 pts_time:202.5   pos:       -1 fmt:yuv420p sar:0/1 s:2304x1296 i:P iskey:1 type:I checksum:A5A43FD4 plane_checksum:[D95FB27F A6703AAA 0AC1529C] mean:[114 127 128] stdev:[57.1 4.8 5.0]
[Motion Debug] Motion detected on Garage1: [Parsed_showinfo_1 @ 0x5563fafa1f40] n:  27 pts:    840 pts_time:210     pos:       -1 fmt:yuv420p sar:0/1 s:2304x1296 i:P iskey:1 type:I checksum:C50D87E7 plane_checksum:[6BE5B699 0A687119 B72E6026] mean:[114 127 128] stdev:[57.1 4.7 5.0]
Incoming WS connection: /stream?url=rtsp%3A%2F%2Fwyliebutler%3Aler542111%40192.168.2.51%3A554%2Fstream1
Client connected to stream: rtsp://wyliebutler:ler542111@192.168.2.51:554/stream1
Starting ffmpeg for rtsp://wyliebutler:ler542111@192.168.2.51:554/stream1
FFmpeg started: ffmpeg -rtsp_transport tcp -analyzeduration 1000000 -probesize 1000000 -fflags nobuffer -flags low_delay -strict experimental -i rtsp://wyliebutler:ler542111@192.168.2.51:554/stream1 -f mpegts -codec:v mpeg1video -b:v 2000k -r 25 -bf 0 -q:v 2 -tune zerolatency -preset ultrafast pipe:1
Client disconnected from stream: rtsp://wyliebutler:ler542111@192.168.2.51:554/stream1
[Motion Debug] Motion detected on Office: [Parsed_showinfo_1 @ 0x56007fe55100] n:  31 pts:    757 pts_time:189.25  pos:       -1 fmt:yuv420p sar:0/1 s:1920x1080 i:P iskey:1 type:I checksum:52C0680B plane_checksum:[A9F4EF57 741B0C1E 011D6C87] mean:[115 123 128] stdev:[52.3 19.1 14.5]
[Motion Debug] Motion detected on Office: [Parsed_showinfo_1 @ 0x56007fe55100] n:  32 pts:    817 pts_time:204.25  pos:       -1 fmt:yuv420p sar:0/1 s:1920x1080 i:P iskey:1 type:I checksum:8E914D15 plane_checksum:[0ED2F76F 654BB4E7 856FA0A1] mean:[115 123 128] stdev:[52.3 19.1 14.5]
[Motion Debug] Motion detected on Office: [Parsed_showinfo_1 @ 0x56007fe55100] n:  33 pts:    818 pts_time:204.5   pos:       -1 fmt:yuv420p sar:0/1 s:1920x1080 i:P iskey:0 type:P checksum:C8BBE72C plane_checksum:[3240C7B6 AA228AE3 771E9484] mean:[115 123 128] stdev:[52.4 19.1 14.5]
Incoming WS connection: /stream?url=rtsp%3A%2F%2Fwyliebutler%3Aler542111%40192.168.2.51%3A554%2Fstream1
Client connected to stream: rtsp://wyliebutler:ler542111@192.168.2.51:554/stream1
Starting ffmpeg for rtsp://wyliebutler:ler542111@192.168.2.51:554/stream1
FFmpeg started: ffmpeg -rtsp_transport tcp -analyzeduration 1000000 -probesize 1000000 -fflags nobuffer -flags low_delay -strict experimental -i rtsp://wyliebutler:ler542111@192.168.2.51:554/stream1 -f mpegts -codec:v mpeg1video -b:v 2000k -r 25 -bf 0 -q:v 2 -tune zerolatency -preset ultrafast pipe:1
[Motion Debug] Motion detected on Office: [Parsed_showinfo_1 @ 0x56007fe55100] n:  34 pts:    877 pts_time:219.25  pos:       -1 fmt:yuv420p sar:0/1 s:1920x1080 i:P iskey:1 type:I checksum:D6B8D90A plane_checksum:[9C76B0A1 343FCBEE 07465C6C] mean:[115 124 128] stdev:[52.2 19.0 14.5]
[Motion Debug] Motion detected on Office: [Parsed_showinfo_1 @ 0x56007fe55100] n:  35 pts:    937 pts_time:234.25  pos:       -1 fmt:yuv420p sar:0/1 s:1920x1080 i:P iskey:1 type:I checksum:E44123F4 plane_checksum:[46F71379 2F04C727 4BF84945] mean:[115 124 128] stdev:[52.2 18.9 14.5]
[Motion Debug] Motion detected on Office: [Parsed_showinfo_1 @ 0x56007fe55100] n:  36 pts:    938 pts_time:234.5   pos:       -1 fmt:yuv420p sar:0/1 s:1920x1080 i:P iskey:0 type:P checksum:A78DF102 plane_checksum:[E696BFBB 6C34A758 7D7789E0] mean:[115 124 128] stdev:[52.0 18.9 14.5]
Client disconnected from stream: rtsp://wyliebutler:ler542111@192.168.2.51:554/stream1
No clients left for rtsp://wyliebutler:ler542111@192.168.2.51:554/stream1, stopping stream.
Client disconnected from stream: rtsp://thingino:thingino@192.168.2.80:554/ch0
No clients left for rtsp://thingino:thingino@192.168.2.80:554/ch0, stopping stream.
Fetching settings: {
  motion_sensitivity: 'medium',
  smtp_user: 'wylie.butler@gmail.com',
  smtp_pass: 'jwzejrnocmphpudv',
  notification_email: 'wylie.butler@gmail.com',
  smtp_host: 'smtp.gmail.com',
  smtp_port: '587',
  theme: 'ocean',
  system_mode: 'home'
}
Fetching settings: {
  motion_sensitivity: 'medium',
  smtp_user: 'wylie.butler@gmail.com',
  smtp_pass: 'jwzejrnocmphpudv',
  notification_email: 'wylie.butler@gmail.com',
  smtp_host: 'smtp.gmail.com',
  smtp_port: '587',
  theme: 'ocean',
  system_mode: 'home'
}
Incoming WS connection: /stream?url=rtsp%3A%2F%2Fwyliebutler%3Aler542111%40192.168.2.51%3A554%2Fstream1
Client connected to stream: rtsp://wyliebutler:ler542111@192.168.2.51:554/stream1
Starting ffmpeg for rtsp://wyliebutler:ler542111@192.168.2.51:554/stream1
FFmpeg started: ffmpeg -rtsp_transport tcp -analyzeduration 1000000 -probesize 1000000 -fflags nobuffer -flags low_delay -strict experimental -i rtsp://wyliebutler:ler542111@192.168.2.51:554/stream1 -f mpegts -codec:v mpeg1video -b:v 2000k -r 25 -bf 0 -q:v 2 -tune zerolatency -preset ultrafast pipe:1
Incoming WS connection: /stream?url=rtsp%3A%2F%2Fthingino%3Athingino%40192.168.2.80%3A554%2Fch0
Client connected to stream: rtsp://thingino:thingino@192.168.2.80:554/ch0
Starting ffmpeg for rtsp://thingino:thingino@192.168.2.80:554/ch0
FFmpeg started: ffmpeg -rtsp_transport tcp -analyzeduration 1000000 -probesize 1000000 -fflags nobuffer -flags low_delay -strict experimental -i rtsp://thingino:thingino@192.168.2.80:554/ch0 -f mpegts -codec:v mpeg1video -b:v 2000k -r 25 -bf 0 -q:v 2 -tune zerolatency -preset ultrafast pipe:1
[Motion Debug] Motion detected on Office: [Parsed_showinfo_1 @ 0x56007fe55100] n:  37 pts:    996 pts_time:249     pos:       -1 fmt:yuv420p sar:0/1 s:1920x1080 i:P iskey:1 type:I checksum:02775A30 plane_checksum:[84143139 B3CB11DC E17D171B] mean:[115 123 128] stdev:[52.1 19.0 14.4]
[Motion Debug] Motion detected on Office: [Parsed_showinfo_1 @ 0x56007fe55100] n:  38 pts:   1006 pts_time:251.5   pos:       -1 fmt:yuv420p sar:0/1 s:1920x1080 i:P iskey:1 type:I checksum:CDBED4C2 plane_checksum:[9A46C03C 613BF75A C80F1D1D] mean:[115 124 128] stdev:[52.2 18.9 14.5]
[Motion Debug] Motion detected on Office: [Parsed_showinfo_1 @ 0x56007fe55100] n:  39 pts:   1020 pts_time:255     pos:       -1 fmt:yuv420p sar:0/1 s:1920x1080 i:P iskey:1 type:I checksum:26D9316B plane_checksum:[89FF86F8 5D443E65 D17E6BFF] mean:[115 124 128] stdev:[52.2 19.0 14.5]
[Motion Debug] Motion detected on Office: [Parsed_showinfo_1 @ 0x56007fe55100] n:  40 pts:   1034 pts_time:258.5   pos:       -1 fmt:yuv420p sar:0/1 s:1920x1080 i:P iskey:1 type:I checksum:B21A715C plane_checksum:[107663EB 13FB6830 2655A532] mean:[115 124 128] stdev:[52.2 19.0 14.5]
[Motion Debug] Motion detected on Office: [Parsed_showinfo_1 @ 0x56007fe55100] n:  41 pts:   1047 pts_time:261.75  pos:       -1 fmt:yuv420p sar:0/1 s:1920x1080 i:P iskey:1 type:I checksum:8BA203BE plane_checksum:[DA3ECDD3 5DC78C5A 6C76A973] mean:[115 124 128] stdev:[52.2 19.0 14.5]
[Motion Debug] Motion detected on Office: [Parsed_showinfo_1 @ 0x56007fe55100] n:  42 pts:   1061 pts_time:265.25  pos:       -1 fmt:yuv420p sar:0/1 s:1920x1080 i:P iskey:1 type:I checksum:BA4C0EDB plane_checksum:[EB27950D 80BF3B07 B56F3EB8] mean:[115 124 128] stdev:[52.3 19.0 14.5]
Client disconnected from stream: rtsp://wyliebutler:ler542111@192.168.2.51:554/stream1
No clients left for rtsp://wyliebutler:ler542111@192.168.2.51:554/stream1, stopping stream.
Client disconnected from stream: rtsp://thingino:thingino@192.168.2.80:554/ch0
No clients left for rtsp://thingino:thingino@192.168.2.80:554/ch0, stopping stream.
Fetching settings: {
  motion_sensitivity: 'medium',
  smtp_user: 'wylie.butler@gmail.com',
  smtp_pass: 'jwzejrnocmphpudv',
  notification_email: 'wylie.butler@gmail.com',
  smtp_host: 'smtp.gmail.com',
  smtp_port: '587',
  theme: 'ocean',
  system_mode: 'home'
}
Fetching settings: {
  motion_sensitivity: 'medium',
  smtp_user: 'wylie.butler@gmail.com',
  smtp_pass: 'jwzejrnocmphpudv',
  notification_email: 'wylie.butler@gmail.com',
  smtp_host: 'smtp.gmail.com',
  smtp_port: '587',
  theme: 'ocean',
  system_mode: 'home'
}
Incoming WS connection: /stream?url=rtsp%3A%2F%2Fwyliebutler%3Aler542111%40192.168.2.51%3A554%2Fstream1
Client connected to stream: rtsp://wyliebutler:ler542111@192.168.2.51:554/stream1
Starting ffmpeg for rtsp://wyliebutler:ler542111@192.168.2.51:554/stream1
FFmpeg started: ffmpeg -rtsp_transport tcp -analyzeduration 1000000 -probesize 1000000 -fflags nobuffer -flags low_delay -strict experimental -i rtsp://wyliebutler:ler542111@192.168.2.51:554/stream1 -f mpegts -codec:v mpeg1video -b:v 2000k -r 25 -bf 0 -q:v 2 -tune zerolatency -preset ultrafast pipe:1
Incoming WS connection: /stream?url=rtsp%3A%2F%2Fthingino%3Athingino%40192.168.2.80%3A554%2Fch0
Client connected to stream: rtsp://thingino:thingino@192.168.2.80:554/ch0
Starting ffmpeg for rtsp://thingino:thingino@192.168.2.80:554/ch0
FFmpeg started: ffmpeg -rtsp_transport tcp -analyzeduration 1000000 -probesize 1000000 -fflags nobuffer -flags low_delay -strict experimental -i rtsp://thingino:thingino@192.168.2.80:554/ch0 -f mpegts -codec:v mpeg1video -b:v 2000k -r 25 -bf 0 -q:v 2 -tune zerolatency -preset ultrafast pipe:1
[Motion Debug] Motion detected on Office: [Parsed_showinfo_1 @ 0x56007fe55100] n:  43 pts:   1121 pts_time:280.25  pos:       -1 fmt:yuv420p sar:0/1 s:1920x1080 i:P iskey:1 type:I checksum:8C3584C7 plane_checksum:[BBBE6EAD C5E9CC7F 1E1A498C] mean:[115 124 128] stdev:[52.5 19.1 14.6]
[Motion Debug] Motion detected on Office: [Parsed_showinfo_1 @ 0x56007fe55100] n:  44 pts:   1123 pts_time:280.75  pos:       -1 fmt:yuv420p sar:0/1 s:1920x1080 i:P iskey:1 type:I checksum:34452A27 plane_checksum:[0BC3D1DC B8660EA1 12E8499B] mean:[115 124 128] stdev:[52.5 19.1 14.7]
[Motion Debug] Motion detected on Office: [Parsed_showinfo_1 @ 0x56007fe55100] n:  45 pts:   1124 pts_time:281     pos:       -1 fmt:yuv420p sar:0/1 s:1920x1080 i:P iskey:0 type:P checksum:32D12B84 plane_checksum:[6F050B91 1564EE5F 0A3B3185] mean:[115 124 128] stdev:[52.5 19.1 14.6]
[Motion Debug] Motion detected on Office: [Parsed_showinfo_1 @ 0x56007fe55100] n:  46 pts:   1126 pts_time:281.5   pos:       -1 fmt:yuv420p sar:0/1 s:1920x1080 i:P iskey:1 type:I checksum:33BA5E10 plane_checksum:[E95F1650 7AFC344B FE111375] mean:[115 124 128] stdev:[52.4 19.1 14.6]
[Motion Debug] Motion detected on Office: [Parsed_showinfo_1 @ 0x56007fe55100] n:  47 pts:   1127 pts_time:281.75  pos:       -1 fmt:yuv420p sar:0/1 s:1920x1080 i:P iskey:0 type:P checksum:1020A529 plane_checksum:[862AA257 1CFD0166 0E25016C] mean:[115 124 128] stdev:[52.5 19.1 14.6]
[Motion Debug] Motion detected on Office: [Parsed_showinfo_1 @ 0x56007fe55100] n:  48 pts:   1139 pts_time:284.75  pos:       -1 fmt:yuv420p sar:0/1 s:1920x1080 i:P iskey:1 type:I checksum:40143960 plane_checksum:[520F3D8D 1220DC1A 6CAF1FAA] mean:[115 124 128] stdev:[52.4 19.1 14.6]
[Motion Debug] Motion detected on Office: [Parsed_showinfo_1 @ 0x56007fe55100] n:  49 pts:   1152 pts_time:288     pos:       -1 fmt:yuv420p sar:0/1 s:1920x1080 i:P iskey:1 type:I checksum:018730BA plane_checksum:[A11B3AB4 FF107DD6 2F647821] mean:[115 124 128] stdev:[52.4 19.1 14.6]
[Motion Debug] Motion detected on Office: [Parsed_showinfo_1 @ 0x56007fe55100] n:  50 pts:   1166 pts_time:291.5   pos:       -1 fmt:yuv420p sar:0/1 s:1920x1080 i:P iskey:1 type:I checksum:670F39C4 plane_checksum:[F734EE16 1A6218EE 5CED32B1] mean:[115 124 128] stdev:[52.4 19.1 14.6]
[Motion Debug] Motion detected on Office: [Parsed_showinfo_1 @ 0x56007fe55100] n:  51 pts:   1179 pts_time:294.75  pos:       -1 fmt:yuv420p sar:0/1 s:1920x1080 i:P iskey:1 type:I checksum:C6A9E94C plane_checksum:[9C943721 3E49FF52 BD1EB2CA] mean:[115 124 128] stdev:[52.2 19.0 14.5]
[Motion Debug] Motion detected on Office: [Parsed_showinfo_1 @ 0x56007fe55100] n:  52 pts:   1180 pts_time:295     pos:       -1 fmt:yuv420p sar:0/1 s:1920x1080 i:P iskey:0 type:P checksum:9398F799 plane_checksum:[545D7E86 7D32D374 EB56A590] mean:[115 124 128] stdev:[52.3 19.0 14.5]
[Motion Debug] Motion detected on Office: [Parsed_showinfo_1 @ 0x56007fe55100] n:  53 pts:   1239 pts_time:309.75  pos:       -1 fmt:yuv420p sar:0/1 s:1920x1080 i:P iskey:1 type:I checksum:34E01EF4 plane_checksum:[306F6932 CCE09174 A81F243F] mean:[115 124 128] stdev:[52.4 19.1 14.6]
[Motion Debug] Motion detected on Office: [Parsed_showinfo_1 @ 0x56007fe55100] n:  54 pts:   1299 pts_time:324.75  pos:       -1 fmt:yuv420p sar:0/1 s:1920x1080 i:P iskey:1 type:I checksum:BBAE7430 plane_checksum:[5E9F2F8D E7D644DF CFF3FFB5] mean:[115 124 128] stdev:[52.4 19.1 14.6]
[Motion Debug] Motion detected on Office: [Parsed_showinfo_1 @ 0x56007fe55100] n:  55 pts:   1359 pts_time:339.75  pos:       -1 fmt:yuv420p sar:0/1 s:1920x1080 i:P iskey:1 type:I checksum:92532023 plane_checksum:[BE6F7A98 4B447F75 9A4B2607] mean:[115 124 128] stdev:[52.4 19.1 14.7]
[Motion Debug] Motion detected on Office: [Parsed_showinfo_1 @ 0x56007fe55100] n:  56 pts:   1401 pts_time:350.25  pos:       -1 fmt:yuv420p sar:0/1 s:1920x1080 i:P iskey:0 type:P checksum:58B8060B plane_checksum:[ECE5459C BE8515F5 FFE8AA6B] mean:[112 125 127] stdev:[51.8 18.3 14.2]
[Motion Debug] Motion detected on Office: [Parsed_showinfo_1 @ 0x56007fe55100] n:  57 pts:   1403 pts_time:350.75  pos:       -1 fmt:yuv420p sar:0/1 s:1920x1080 i:P iskey:0 type:P checksum:292CD754 plane_checksum:[437C41F0 47552D95 DCC567CF] mean:[111 125 127] stdev:[51.2 18.1 14.0]
[Motion Debug] Motion detected on Office: [Parsed_showinfo_1 @ 0x56007fe55100] n:  58 pts:   1404 pts_time:351     pos:       -1 fmt:yuv420p sar:0/1 s:1920x1080 i:P iskey:0 type:P checksum:0D8BDCC1 plane_checksum:[D017055C 1340E3B3 3FD0F3A3] mean:[111 125 127] stdev:[50.7 17.8 13.9]
[Motion Debug] Motion detected on Office: [Parsed_showinfo_1 @ 0x56007fe55100] n:  59 pts:   1406 pts_time:351.5   pos:       -1 fmt:yuv420p sar:0/1 s:1920x1080 i:P iskey:0 type:P checksum:863CA6CC plane_checksum:[E030FFC8 EFAFD77C BCAECF6A] mean:[109 126 126] stdev:[49.2 17.4 13.7]
[Motion Debug] Motion detected on Office: [Parsed_showinfo_1 @ 0x56007fe55100] n:  60 pts:   1408 pts_time:352     pos:       -1 fmt:yuv420p sar:0/1 s:1920x1080 i:P iskey:0 type:P checksum:228EE8BD plane_checksum:[ED1E726A 98C90CAF 6B0E69A4] mean:[110 127 126] stdev:[50.5 16.8 13.1]
[Motion Debug] Motion detected on Office: [Parsed_showinfo_1 @ 0x56007fe55100] n:  61 pts:   1409 pts_time:352.25  pos:       -1 fmt:yuv420p sar:0/1 s:1920x1080 i:P iskey:0 type:P checksum:02A34E2F plane_checksum:[93C5BDCF DC79E081 4A80AFC1] mean:[110 127 126] stdev:[51.1 16.8 13.1]
[Motion Debug] Motion detected on Office: [Parsed_showinfo_1 @ 0x56007fe55100] n:  62 pts:   1411 pts_time:352.75  pos:       -1 fmt:yuv420p sar:0/1 s:1920x1080 i:P iskey:0 type:P checksum:6D8DD6B5 plane_checksum:[8AC612AE 9C14D58E FA3EEE6A] mean:[112 126 126] stdev:[52.3 17.0 13.2]
[Motion Debug] Motion detected on Office: [Parsed_showinfo_1 @ 0x56007fe55100] n:  63 pts:   1412 pts_time:353     pos:       -1 fmt:yuv420p sar:0/1 s:1920x1080 i:P iskey:0 type:P checksum:19BD7B12 plane_checksum:[FD21FBE2 69CBB9AC 24A1C566] mean:[113 126 126] stdev:[51.6 16.9 13.0]
[Motion Debug] Motion detected on Office: [Parsed_showinfo_1 @ 0x56007fe55100] n:  64 pts:   1413 pts_time:353.25  pos:       -1 fmt:yuv420p sar:0/1 s:1920x1080 i:P iskey:0 type:P checksum:DA632484 plane_checksum:[5285030E 9EC4587E E3C7C8E9] mean:[113 125 127] stdev:[51.9 17.0 13.0]
[Motion Debug] Motion detected on Office: [Parsed_showinfo_1 @ 0x56007fe55100] n:  65 pts:   1416 pts_time:354     pos:       -1 fmt:yuv420p sar:0/1 s:1920x1080 i:P iskey:0 type:P checksum:62AF0B2F plane_checksum:[E76A43AB 895A1FBF 5F9FA7B6] mean:[114 124 128] stdev:[52.5 17.1 13.0]
[Motion Debug] Motion detected on Office: [Parsed_showinfo_1 @ 0x56007fe55100] n:  66 pts:   1418 pts_time:354.5   pos:       -1 fmt:yuv420p sar:0/1 s:1920x1080 i:P iskey:0 type:P checksum:D665176A plane_checksum:[B20452A7 EAF998E0 D9E72BD4] mean:[114 124 128] stdev:[52.2 17.1 12.9]
[Motion Debug] Motion detected on Office: [Parsed_showinfo_1 @ 0x56007fe55100] n:  67 pts:   1419 pts_time:354.75  pos:       -1 fmt:yuv420p sar:0/1 s:1920x1080 i:P iskey:1 type:I checksum:50571BFB plane_checksum:[6FDB7919 651A44F3 8FD75DE0] mean:[114 123 129] stdev:[51.6 16.6 12.6]
[Motion Debug] Motion detected on Office: [Parsed_showinfo_1 @ 0x56007fe55100] n:  68 pts:   1420 pts_time:355     pos:       -1 fmt:yuv420p sar:0/1 s:1920x1080 i:P iskey:0 type:P checksum:BAEAC47D plane_checksum:[3CF9B4FC 64823639 8F04D939] mean:[114 123 129] stdev:[51.5 16.5 12.5]
[Motion Debug] Motion detected on Office: [Parsed_showinfo_1 @ 0x56007fe55100] n:  69 pts:   1421 pts_time:355.25  pos:       -1 fmt:yuv420p sar:0/1 s:1920x1080 i:P iskey:0 type:P checksum:E109001C plane_checksum:[FB79A76D B3926FAF 7E58E8E2] mean:[114 123 129] stdev:[51.4 16.4 12.4]
[Motion Debug] Motion detected on Office: [Parsed_showinfo_1 @ 0x56007fe55100] n:  70 pts:   1422 pts_time:355.5   pos:       -1 fmt:yuv420p sar:0/1 s:1920x1080 i:P iskey:0 type:P checksum:CFB76E46 plane_checksum:[BCBAD5A0 237F8A3C EC070E5B] mean:[114 123 129] stdev:[51.5 16.4 12.3]
[Motion Debug] Motion detected on Office: [Parsed_showinfo_1 @ 0x56007fe55100] n:  71 pts:   1426 pts_time:356.5   pos:       -1 fmt:yuv420p sar:0/1 s:1920x1080 i:P iskey:0 type:P checksum:88460EAC plane_checksum:[77359639 0C4A90C6 A666E78F] mean:[114 123 129] stdev:[51.8 16.4 12.3]
[Motion Debug] Motion detected on Office: [Parsed_showinfo_1 @ 0x56007fe55100] n:  72 pts:   1429 pts_time:357.25  pos:       -1 fmt:yuv420p sar:0/1 s:1920x1080 i:P iskey:0 type:P checksum:4FF9EE24 plane_checksum:[30C86CF5 0B28166D 79996AC2] mean:[114 123 129] stdev:[51.8 16.5 12.4]
[Motion Debug] Motion detected on Office: [Parsed_showinfo_1 @ 0x56007fe55100] n:  73 pts:   1434 pts_time:358.5   pos:       -1 fmt:yuv420p sar:0/1 s:1920x1080 i:P iskey:0 type:P checksum:A2DC15AD plane_checksum:[8BA557AD 8BD3C07B 283BFD67] mean:[115 123 128] stdev:[51.9 16.7 12.6]
[Motion Debug] Motion detected on Office: [Parsed_showinfo_1 @ 0x56007fe55100] n:  74 pts:   1435 pts_time:358.75  pos:       -1 fmt:yuv420p sar:0/1 s:1920x1080 i:P iskey:0 type:P checksum:E1AC1008 plane_checksum:[95465523 C309B7A7 C08E032F] mean:[115 123 128] stdev:[51.9 16.7 12.6]
[Motion Debug] Motion detected on Office: [Parsed_showinfo_1 @ 0x56007fe55100] n:  75 pts:   1440 pts_time:360     pos:       -1 fmt:yuv420p sar:0/1 s:1920x1080 i:P iskey:0 type:P checksum:E5025631 plane_checksum:[08A36322 FE018D6D 4AEF6593] mean:[116 125 127] stdev:[52.1 16.6 12.6]
[Motion Debug] Motion detected on Office: [Parsed_showinfo_1 @ 0x56007fe55100] n:  76 pts:   1446 pts_time:361.5   pos:       -1 fmt:yuv420p sar:0/1 s:1920x1080 i:P iskey:0 type:P checksum:A79BC9B2 plane_checksum:[EA44CD51 386EFE73 1445FDD0] mean:[113 126 127] stdev:[50.0 16.6 12.8]
[Motion Debug] Motion detected on Office: [Parsed_showinfo_1 @ 0x56007fe55100] n:  77 pts:   1448 pts_time:362     pos:       -1 fmt:yuv420p sar:0/1 s:1920x1080 i:P iskey:0 type:P checksum:80D32ECC plane_checksum:[FF410520 394F515A A6F4D843] mean:[113 126 127] stdev:[50.1 16.1 12.5]
[Motion Debug] Motion detected on Office: [Parsed_showinfo_1 @ 0x56007fe55100] n:  78 pts:   1449 pts_time:362.25  pos:       -1 fmt:yuv420p sar:0/1 s:1920x1080 i:P iskey:0 type:P checksum:D6122BAB plane_checksum:[45125752 83948004 D6485446] mean:[113 126 127] stdev:[49.9 16.2 12.6]
[Motion Debug] Motion detected on Office: [Parsed_showinfo_1 @ 0x56007fe55100] n:  79 pts:   1450 pts_time:362.5   pos:       -1 fmt:yuv420p sar:0/1 s:1920x1080 i:P iskey:0 type:P checksum:2EDE8B1B plane_checksum:[7A17D5BB 6838182A 4DDE9D27] mean:[114 126 127] stdev:[50.7 16.6 12.7]
[Motion Debug] Motion detected on Office: [Parsed_showinfo_1 @ 0x56007fe55100] n:  80 pts:   1452 pts_time:363     pos:       -1 fmt:yuv420p sar:0/1 s:1920x1080 i:P iskey:0 type:P checksum:ECF2227D plane_checksum:[BE61520C 730D0447 364ACC1B] mean:[116 125 127] stdev:[51.4 17.0 12.9]
[Motion Debug] Motion detected on Office: [Parsed_showinfo_1 @ 0x56007fe55100] n:  81 pts:   1455 pts_time:363.75  pos:       -1 fmt:yuv420p sar:0/1 s:1920x1080 i:P iskey:0 type:P checksum:8AB1830E plane_checksum:[FD186F53 3B73A9B9 F4A569F3] mean:[118 125 128] stdev:[51.7 17.5 13.1]
[Motion Debug] Motion detected on Office: [Parsed_showinfo_1 @ 0x56007fe55100] n:  82 pts:   1470 pts_time:367.5   pos:       -1 fmt:yuv420p sar:0/1 s:1920x1080 i:P iskey:0 type:P checksum:C0B11537 plane_checksum:[1BF65A9E 927D715F 6B97492B] mean:[116 123 128] stdev:[51.8 18.8 14.0]
[Motion Debug] Motion detected on Office: [Parsed_showinfo_1 @ 0x56007fe55100] n:  83 pts:   1479 pts_time:369.75  pos:       -1 fmt:yuv420p sar:0/1 s:1920x1080 i:P iskey:1 type:I checksum:2F3C0217 plane_checksum:[432C115B 7A948655 10836A58] mean:[115 123 128] stdev:[52.1 18.9 14.5]
Client disconnected from stream: rtsp://thingino:thingino@192.168.2.80:554/ch0
No clients left for rtsp://thingino:thingino@192.168.2.80:554/ch0, stopping stream.
Client disconnected from stream: rtsp://wyliebutler:ler542111@192.168.2.51:554/stream1
No clients left for rtsp://wyliebutler:ler542111@192.168.2.51:554/stream1, stopping stream.
Fetching settings: {
  motion_sensitivity: 'medium',
  smtp_user: 'wylie.butler@gmail.com',
  smtp_pass: 'jwzejrnocmphpudv',
  notification_email: 'wylie.butler@gmail.com',
  smtp_host: 'smtp.gmail.com',
  smtp_port: '587',
  theme: 'ocean',
  system_mode: 'home'
}
Fetching settings: {
  motion_sensitivity: 'medium',
  smtp_user: 'wylie.butler@gmail.com',
  smtp_pass: 'jwzejrnocmphpudv',
  notification_email: 'wylie.butler@gmail.com',
  smtp_host: 'smtp.gmail.com',
  smtp_port: '587',
  theme: 'ocean',
  system_mode: 'home'
}
Incoming WS connection: /stream?url=rtsp%3A%2F%2Fwyliebutler%3Aler542111%40192.168.2.51%3A554%2Fstream1
Client connected to stream: rtsp://wyliebutler:ler542111@192.168.2.51:554/stream1
Starting ffmpeg for rtsp://wyliebutler:ler542111@192.168.2.51:554/stream1
FFmpeg started: ffmpeg -rtsp_transport tcp -analyzeduration 1000000 -probesize 1000000 -fflags nobuffer -flags low_delay -strict experimental -i rtsp://wyliebutler:ler542111@192.168.2.51:554/stream1 -f mpegts -codec:v mpeg1video -b:v 2000k -r 25 -bf 0 -q:v 2 -tune zerolatency -preset ultrafast pipe:1
Incoming WS connection: /stream?url=rtsp%3A%2F%2Fthingino%3Athingino%40192.168.2.80%3A554%2Fch0
Client connected to stream: rtsp://thingino:thingino@192.168.2.80:554/ch0
Starting ffmpeg for rtsp://thingino:thingino@192.168.2.80:554/ch0
FFmpeg started: ffmpeg -rtsp_transport tcp -analyzeduration 1000000 -probesize 1000000 -fflags nobuffer -flags low_delay -strict experimental -i rtsp://thingino:thingino@192.168.2.80:554/ch0 -f mpegts -codec:v mpeg1video -b:v 2000k -r 25 -bf 0 -q:v 2 -tune zerolatency -preset ultrafast pipe:1
[Motion Debug] Motion detected on Office: [Parsed_showinfo_1 @ 0x56007fe55100] n:  84 pts:   1521 pts_time:380.25  pos:       -1 fmt:yuv420p sar:0/1 s:1920x1080 i:P iskey:1 type:I checksum:9A031D00 plane_checksum:[57C80E9D D22CED68 622720EC] mean:[115 124 128] stdev:[52.4 19.1 14.6]
[Motion Debug] Motion detected on Office: [Parsed_showinfo_1 @ 0x56007fe55100] n:  85 pts:   1527 pts_time:381.75  pos:       -1 fmt:yuv420p sar:0/1 s:1920x1080 i:P iskey:1 type:I checksum:54B7B51C plane_checksum:[F3F6FDFE 4744C9C1 0D0BED3F] mean:[115 124 128] stdev:[52.4 19.1 14.6]
[Motion Debug] Motion detected on Office: [Parsed_showinfo_1 @ 0x56007fe55100] n:  86 pts:   1539 pts_time:384.75  pos:       -1 fmt:yuv420p sar:0/1 s:1920x1080 i:P iskey:1 type:I checksum:7EE2BB85 plane_checksum:[0B45B083 D7C5D015 E90C3ADE] mean:[115 123 128] stdev:[52.5 19.2 14.6]
[Motion Debug] Motion detected on Office: [Parsed_showinfo_1 @ 0x56007fe55100] n:  87 pts:   1552 pts_time:388     pos:       -1 fmt:yuv420p sar:0/1 s:1920x1080 i:P iskey:1 type:I checksum:EE76A7BD plane_checksum:[32278CF0 0FE30D03 5C6E0DCA] mean:[115 124 128] stdev:[52.4 19.1 14.6]
[Motion Debug] Motion detected on Office: [Parsed_showinfo_1 @ 0x56007fe55100] n:  88 pts:   1566 pts_time:391.5   pos:       -1 fmt:yuv420p sar:0/1 s:1920x1080 i:P iskey:1 type:I checksum:F1B9A3C5 plane_checksum:[E5AFE6FE 82DA4B62 DCA37156] mean:[115 123 128] stdev:[52.5 19.2 14.6]
[Motion Debug] Motion detected on Office: [Parsed_showinfo_1 @ 0x56007fe55100] n:  89 pts:   1579 pts_time:394.75  pos:       -1 fmt:yuv420p sar:0/1 s:1920x1080 i:P iskey:1 type:I checksum:E5BF2494 plane_checksum:[EE90BC21 70EB2C3F 2C083C25] mean:[115 124 128] stdev:[52.3 19.1 14.6]
[Motion Debug] Motion detected on Office: [Parsed_showinfo_1 @ 0x56007fe55100] n:  90 pts:   1580 pts_time:395     pos:       -1 fmt:yuv420p sar:0/1 s:1920x1080 i:P iskey:0 type:P checksum:4059AA04 plane_checksum:[D4B1A8AD 7C275304 8071AE44] mean:[115 124 128] stdev:[52.3 19.1 14.6]
[Motion Debug] Motion detected on Office: [Parsed_showinfo_1 @ 0x56007fe55100] n:  91 pts:   1639 pts_time:409.75  pos:       -1 fmt:yuv420p sar:0/1 s:1920x1080 i:P iskey:1 type:I checksum:7B1C770F plane_checksum:[FA62016A 52F85637 E3151F6E] mean:[115 124 128] stdev:[52.5 19.2 14.6]
[Motion Debug] Motion detected on Office: [Parsed_showinfo_1 @ 0x56007fe55100] n:  92 pts:   1699 pts_time:424.75  pos:       -1 fmt:yuv420p sar:0/1 s:1920x1080 i:P iskey:1 type:I checksum:1DA8BE70 plane_checksum:[74D7F4C0 50BD65D0 675763D1] mean:[115 123 128] stdev:[52.5 19.3 14.6]
[Motion Debug] Motion detected on Office: [Parsed_showinfo_1 @ 0x56007fe55100] n:  93 pts:   1759 pts_time:439.75  pos:       -1 fmt:yuv420p sar:0/1 s:1920x1080 i:P iskey:1 type:I checksum:F9AE7368 plane_checksum:[EABB7C74 FDEEF1DB 129A050A] mean:[115 124 128] stdev:[52.4 19.1 14.7]
[Motion Debug] Motion detected on Office: [Parsed_showinfo_1 @ 0x56007fe55100] n:  94 pts:   1819 pts_time:454.75  pos:       -1 fmt:yuv420p sar:0/1 s:1920x1080 i:P iskey:1 type:I checksum:B74E1567 plane_checksum:[E0AF3D7D D8319E61 BC33397A] mean:[115 124 128] stdev:[52.4 19.1 14.7]
[Motion Debug] Motion detected on Office: [Parsed_showinfo_1 @ 0x56007fe55100] n:  95 pts:   1879 pts_time:469.75  pos:       -1 fmt:yuv420p sar:0/1 s:1920x1080 i:P iskey:1 type:I checksum:DFF93AE3 plane_checksum:[BAD4E820 8FB49299 E544C00C] mean:[114 124 128] stdev:[52.3 19.0 14.6]
[Motion Debug] Motion detected on Office: [Parsed_showinfo_1 @ 0x56007fe55100] n:  96 pts:   1939 pts_time:484.75  pos:       -1 fmt:yuv420p sar:0/1 s:1920x1080 i:P iskey:1 type:I checksum:ACC9E5BF plane_checksum:[FB61CA44 329924D6 5385F696] mean:[115 124 128] stdev:[52.4 19.1 14.6]
[Motion Debug] Motion detected on Office: [Parsed_showinfo_1 @ 0x56007fe55100] n:  97 pts:   1940 pts_time:485     pos:       -1 fmt:yuv420p sar:0/1 s:1920x1080 i:P iskey:0 type:P checksum:CB9BE3DC plane_checksum:[F753AFD1 40D78BBE 6740A83E] mean:[115 124 128] stdev:[52.4 19.2 14.6]
[Motion Debug] Motion detected on Office: [Parsed_showinfo_1 @ 0x56007fe55100] n:  98 pts:   1999 pts_time:499.75  pos:       -1 fmt:yuv420p sar:0/1 s:1920x1080 i:P iskey:1 type:I checksum:619BF08D plane_checksum:[A42354E5 D59E0642 5E9C9566] mean:[115 123 128] stdev:[52.4 19.2 14.6]
[Motion Debug] Motion detected on Office: [Parsed_showinfo_1 @ 0x56007fe55100] n:  99 pts:   2059 pts_time:514.75  pos:       -1 fmt:yuv420p sar:0/1 s:1920x1080 i:P iskey:1 type:I checksum:ECEB9C1F plane_checksum:[26E52BEA BA027EE8 636DF13E] mean:[115 124 128] stdev:[52.4 19.1 14.7]
[Motion Debug] Motion detected on Office: [Parsed_showinfo_1 @ 0x56007fe55100] n: 100 pts:   2060 pts_time:515     pos:       -1 fmt:yuv420p sar:0/1 s:1920x1080 i:P iskey:0 type:P checksum:19416594 plane_checksum:[1C1B307B A4C14E10 BE9EE6FA] mean:[115 124 128] stdev:[52.4 19.1 14.7]
[Motion Debug] Motion detected on Office: [Parsed_showinfo_1 @ 0x56007fe55100] n: 101 pts:   2119 pts_time:529.75  pos:       -1 fmt:yuv420p sar:0/1 s:1920x1080 i:P iskey:1 type:I checksum:3C5EC83A plane_checksum:[D7EF3E99 A718E5E9 8A7EA3A9] mean:[114 124 128] stdev:[52.4 19.1 14.7]
[Motion Debug] Motion detected on Office: [Parsed_showinfo_1 @ 0x56007fe55100] n: 102 pts:   2179 pts_time:544.75  pos:       -1 fmt:yuv420p sar:0/1 s:1920x1080 i:P iskey:1 type:I checksum:C4A9D8CA plane_checksum:[0DB1C01B E8D4EC8E A1EF2C12] mean:[115 123 128] stdev:[52.4 19.1 14.6]
[Motion Debug] Motion detected on Office: [Parsed_showinfo_1 @ 0x56007fe55100] n: 103 pts:   2239 pts_time:559.75  pos:       -1 fmt:yuv420p sar:0/1 s:1920x1080 i:P iskey:1 type:I checksum:A2B8C985 plane_checksum:[E24B70F0 37D75688 0C56020D] mean:[115 124 128] stdev:[52.2 19.0 14.7]
[Motion Debug] Motion detected on Office: [Parsed_showinfo_1 @ 0x56007fe55100] n: 104 pts:   2299 pts_time:574.75  pos:       -1 fmt:yuv420p sar:0/1 s:1920x1080 i:P iskey:1 type:I checksum:32BA0004 plane_checksum:[AA72F6C0 2DB11E37 0155EAEF] mean:[115 123 128] stdev:[52.4 19.1 14.6]
[Motion Debug] Motion detected on Office: [Parsed_showinfo_1 @ 0x56007fe55100] n: 105 pts:   2352 pts_time:588     pos:       -1 fmt:yuv420p sar:0/1 s:1920x1080 i:P iskey:0 type:P checksum:9ABC058C plane_checksum:[8F56A1DD E943CA6A 73F39927] mean:[111 126 127] stdev:[50.9 17.5 13.7]
[Motion Debug] Motion detected on Office: [Parsed_showinfo_1 @ 0x56007fe55100] n: 106 pts:   2353 pts_time:588.25  pos:       -1 fmt:yuv420p sar:0/1 s:1920x1080 i:P iskey:0 type:P checksum:FCCF7D96 plane_checksum:[A2CDA0A1 93AF1967 3FD7C37F] mean:[111 126 127] stdev:[50.5 17.5 13.7]
[Motion Debug] Motion detected on Office: [Parsed_showinfo_1 @ 0x56007fe55100] n: 107 pts:   2357 pts_time:589.25  pos:       -1 fmt:yuv420p sar:0/1 s:1920x1080 i:P iskey:0 type:P checksum:C59EC3C0 plane_checksum:[9FA04A01 EAE5FCE9 7B477CC7] mean:[114 126 126] stdev:[52.6 17.2 13.2]
[Motion Debug] Motion detected on Office: [Parsed_showinfo_1 @ 0x56007fe55100] n: 108 pts:   2358 pts_time:589.5   pos:       -1 fmt:yuv420p sar:0/1 s:1920x1080 i:P iskey:0 type:P checksum:1B6CF9C3 plane_checksum:[A4F83369 66DE9B13 13BB2B47] mean:[114 126 127] stdev:[52.8 17.5 13.3]
[Motion Debug] Motion detected on Office: [Parsed_showinfo_1 @ 0x56007fe55100] n: 109 pts:   2359 pts_time:589.75  pos:       -1 fmt:yuv420p sar:0/1 s:1920x1080 i:P iskey:1 type:I checksum:280A0435 plane_checksum:[02091714 45241E41 E37CCED1] mean:[115 124 129] stdev:[52.3 17.6 13.1]
[Motion Debug] Motion detected on Office: [Parsed_showinfo_1 @ 0x56007fe55100] n: 110 pts:   2360 pts_time:590     pos:       -1 fmt:yuv420p sar:0/1 s:1920x1080 i:P iskey:0 type:P checksum:DE599CEF plane_checksum:[214158CD F43842D5 7094014D] mean:[115 124 129] stdev:[52.0 17.4 12.9]
[Motion Debug] Motion detected on Office: [Parsed_showinfo_1 @ 0x56007fe55100] n: 111 pts:   2361 pts_time:590.25  pos:       -1 fmt:yuv420p sar:0/1 s:1920x1080 i:P iskey:0 type:P checksum:449D7FD3 plane_checksum:[178A823D 415B7C9C 5FE280EB] mean:[116 123 130] stdev:[51.1 17.6 13.1]
[Motion Debug] Motion detected on Office: [Parsed_showinfo_1 @ 0x56007fe55100] n: 112 pts:   2362 pts_time:590.5   pos:       -1 fmt:yuv420p sar:0/1 s:1920x1080 i:P iskey:0 type:P checksum:BD885B29 plane_checksum:[ED739609 20D8BE61 A5E906B0] mean:[116 123 130] stdev:[50.7 17.6 13.1]
[Motion Debug] Motion detected on Office: [Parsed_showinfo_1 @ 0x56007fe55100] n: 113 pts:   2363 pts_time:590.75  pos:       -1 fmt:yuv420p sar:0/1 s:1920x1080 i:P iskey:0 type:P checksum:21177E93 plane_checksum:[6C561018 458DCD90 7717A0DC] mean:[115 123 130] stdev:[50.3 17.6 13.0]
[Motion Debug] Motion detected on Office: [Parsed_showinfo_1 @ 0x56007fe55100] n: 114 pts:   2371 pts_time:592.75  pos:       -1 fmt:yuv420p sar:0/1 s:1920x1080 i:P iskey:0 type:P checksum:408C0EFE plane_checksum:[B1B77148 CD68F66C 1FCBA72C] mean:[116 122 131] stdev:[51.0 17.3 12.7]
[Motion Debug] Motion detected on Office: [Parsed_showinfo_1 @ 0x56007fe55100] n: 115 pts:   2408 pts_time:602     pos:       -1 fmt:yuv420p sar:0/1 s:1920x1080 i:P iskey:0 type:P checksum:4EDD1570 plane_checksum:[1303A331 FE87415A 866830D6] mean:[114 124 128] stdev:[52.1 19.1 14.4]
[Motion Debug] Motion detected on Office: [Parsed_showinfo_1 @ 0x56007fe55100] n: 116 pts:   2419 pts_time:604.75  pos:       -1 fmt:yuv420p sar:0/1 s:1920x1080 i:P iskey:1 type:I checksum:AF0B3C0E plane_checksum:[72EAD534 71F00C6B 4FB85A60] mean:[115 123 128] stdev:[52.6 18.7 14.4]
[Motion Debug] Motion detected on Office: [Parsed_showinfo_1 @ 0x56007fe55100] n: 117 pts:   2420 pts_time:605     pos:       -1 fmt:yuv420p sar:0/1 s:1920x1080 i:P iskey:0 type:P checksum:375A689D plane_checksum:[381B0F40 445E13D0 97C4458D] mean:[115 123 128] stdev:[52.6 18.7 14.4]
[Motion Debug] Motion detected on Office: [Parsed_showinfo_1 @ 0x56007fe55100] n: 118 pts:   2442 pts_time:610.5   pos:       -1 fmt:yuv420p sar:0/1 s:1920x1080 i:P iskey:0 type:P checksum:E8F70294 plane_checksum:[4609269F EAA2A7C6 7DEB3420] mean:[114 123 129] stdev:[51.5 17.3 13.2]
[Motion Debug] Motion detected on Office: [Parsed_showinfo_1 @ 0x56007fe55100] n: 119 pts:   2443 pts_time:610.75  pos:       -1 fmt:yuv420p sar:0/1 s:1920x1080 i:P iskey:0 type:P checksum:6B66BF45 plane_checksum:[31A0FC29 0CA01550 0D50ADBD] mean:[114 122 129] stdev:[51.4 17.0 13.0]
[Motion Debug] Motion detected on Office: [Parsed_showinfo_1 @ 0x56007fe55100] n: 120 pts:   2448 pts_time:612     pos:       -1 fmt:yuv420p sar:0/1 s:1920x1080 i:P iskey:0 type:P checksum:E8C927FE plane_checksum:[55CEFD55 DD29416A 4BD6E921] mean:[114 122 129] stdev:[50.9 16.0 12.1]
[Motion Debug] Motion detected on Office: [Parsed_showinfo_1 @ 0x56007fe55100] n: 121 pts:   2449 pts_time:612.25  pos:       -1 fmt:yuv420p sar:0/1 s:1920x1080 i:P iskey:0 type:P checksum:CB131737 plane_checksum:[DDEAF961 AA0FE414 887F39A4] mean:[114 122 129] stdev:[50.1 16.2 12.1]
[Motion Debug] Motion detected on Office: [Parsed_showinfo_1 @ 0x56007fe55100] n: 122 pts:   2450 pts_time:612.5   pos:       -1 fmt:yuv420p sar:0/1 s:1920x1080 i:P iskey:0 type:P checksum:0891A050 plane_checksum:[CF34919A FEE6D1FA 049A3CAD] mean:[113 123 129] stdev:[50.1 16.4 12.5]
[Motion Debug] Motion detected on Office: [Parsed_showinfo_1 @ 0x56007fe55100] n: 123 pts:   2451 pts_time:612.75  pos:       -1 fmt:yuv420p sar:0/1 s:1920x1080 i:P iskey:0 type:P checksum:4D3B1D59 plane_checksum:[0F6798F4 4C9F7D7F 339306D7] mean:[113 123 129] stdev:[50.1 16.3 12.4]
[Motion Debug] Motion detected on Office: [Parsed_showinfo_1 @ 0x56007fe55100] n: 124 pts:   2452 pts_time:613     pos:       -1 fmt:yuv420p sar:0/1 s:1920x1080 i:P iskey:0 type:P checksum:B491A62C plane_checksum:[3FEACAF9 2D55667E A23074A6] mean:[113 124 129] stdev:[50.1 16.4 12.8]
[Motion Debug] Motion detected on Office: [Parsed_showinfo_1 @ 0x56007fe55100] n: 125 pts:   2453 pts_time:613.25  pos:       -1 fmt:yuv420p sar:0/1 s:1920x1080 i:P iskey:0 type:P checksum:FBC06248 plane_checksum:[5557287B D8BD2652 F95D137B] mean:[113 124 129] stdev:[50.1 16.3 12.7]
[Motion Debug] Motion detected on Office: [Parsed_showinfo_1 @ 0x56007fe55100] n: 126 pts:   2460 pts_time:615     pos:       -1 fmt:yuv420p sar:0/1 s:1920x1080 i:P iskey:0 type:P checksum:E546D432 plane_checksum:[33C84885 E22CE620 A8FCA57E] mean:[111 127 126] stdev:[50.1 15.3 12.2]
[Motion Debug] Motion detected on Office: [Parsed_showinfo_1 @ 0x56007fe55100] n: 127 pts:   2461 pts_time:615.25  pos:       -1 fmt:yuv420p sar:0/1 s:1920x1080 i:P iskey:0 type:P checksum:AF93B407 plane_checksum:[E1AD26E0 BE1EC954 7AD8C3C4] mean:[109 128 126] stdev:[49.1 15.3 12.2]
[Motion Debug] Motion detected on Office: [Parsed_showinfo_1 @ 0x56007fe55100] n: 128 pts:   2462 pts_time:615.5   pos:       -1 fmt:yuv420p sar:0/1 s:1920x1080 i:P iskey:0 type:P checksum:DAFFD9F4 plane_checksum:[6879A4CA 323FB3D9 E0D78142] mean:[109 127 125] stdev:[48.9 15.3 12.2]
[Motion Debug] Motion detected on Office: [Parsed_showinfo_1 @ 0x56007fe55100] n: 129 pts:   2464 pts_time:616     pos:       -1 fmt:yuv420p sar:0/1 s:1920x1080 i:P iskey:0 type:P checksum:6AF0AFE0 plane_checksum:[686827A4 5E231189 893876B3] mean:[109 128 125] stdev:[48.4 15.2 12.1]
[Motion Debug] Motion detected on Office: [Parsed_showinfo_1 @ 0x56007fe55100] n: 130 pts:   2466 pts_time:616.5   pos:       -1 fmt:yuv420p sar:0/1 s:1920x1080 i:P iskey:0 type:P checksum:EEDFC88D plane_checksum:[C050F283 18B71805 15E0BDF6] mean:[110 128 125] stdev:[48.9 15.6 12.2]
[Motion Debug] Motion detected on Office: [Parsed_showinfo_1 @ 0x56007fe55100] n: 131 pts:   2476 pts_time:619     pos:       -1 fmt:yuv420p sar:0/1 s:1920x1080 i:P iskey:0 type:P checksum:5AB75540 plane_checksum:[53290807 72C6E0B5 7C3F6C75] mean:[112 127 125] stdev:[49.9 15.7 12.2]
[Motion Debug] Motion detected on Office: [Parsed_showinfo_1 @ 0x56007fe55100] n: 132 pts:   2477 pts_time:619.25  pos:       -1 fmt:yuv420p sar:0/1 s:1920x1080 i:P iskey:0 type:P checksum:B914B12D plane_checksum:[11B380E7 56F5ED35 19B04302] mean:[114 127 126] stdev:[50.7 15.8 12.2]
[Motion Debug] Motion detected on Office: [Parsed_showinfo_1 @ 0x56007fe55100] n: 133 pts:   2478 pts_time:619.5   pos:       -1 fmt:yuv420p sar:0/1 s:1920x1080 i:P iskey:1 type:I checksum:F5BCD98A plane_checksum:[5CA3A11A F457A3FC 90369465] mean:[116 126 127] stdev:[51.3 15.6 12.0]
[Motion Debug] Motion detected on Office: [Parsed_showinfo_1 @ 0x56007fe55100] n: 134 pts:   2479 pts_time:619.75  pos:       -1 fmt:yuv420p sar:0/1 s:1920x1080 i:P iskey:0 type:P checksum:77B53B79 plane_checksum:[9C10B40E 539F2B2C 0AC65C30] mean:[117 126 127] stdev:[51.6 15.4 11.9]
[Motion Debug] Motion detected on Office: [Parsed_showinfo_1 @ 0x56007fe55100] n: 135 pts:   2484 pts_time:621     pos:       -1 fmt:yuv420p sar:0/1 s:1920x1080 i:P iskey:0 type:P checksum:BDA093B8 plane_checksum:[70B71114 51AFCC88 23E7B60D] mean:[115 124 128] stdev:[50.1 15.8 11.9]
[Motion Debug] Motion detected on Office: [Parsed_showinfo_1 @ 0x56007fe55100] n: 136 pts:   2485 pts_time:621.25  pos:       -1 fmt:yuv420p sar:0/1 s:1920x1080 i:P iskey:0 type:P checksum:3CE3E85E plane_checksum:[3D4A5156 6D5B8739 0B3D0FCF] mean:[116 124 128] stdev:[49.8 16.0 12.0]
[Motion Debug] Motion detected on Office: [Parsed_showinfo_1 @ 0x56007fe55100] n: 137 pts:   2486 pts_time:621.5   pos:       -1 fmt:yuv420p sar:0/1 s:1920x1080 i:P iskey:0 type:P checksum:BCDB9893 plane_checksum:[8AB02066 EB98E3F6 FC1F9428] mean:[117 123 129] stdev:[49.2 16.1 12.1]
[Motion Debug] Motion detected on Office: [Parsed_showinfo_1 @ 0x56007fe55100] n: 138 pts:   2487 pts_time:621.75  pos:       -1 fmt:yuv420p sar:0/1 s:1920x1080 i:P iskey:0 type:P checksum:0469D2FD plane_checksum:[5937705F FBBFA0A5 EAD0C1EA] mean:[118 123 129] stdev:[49.3 16.2 12.1]
[Motion Debug] Motion detected on Office: [Parsed_showinfo_1 @ 0x56007fe55100] n: 139 pts:   2488 pts_time:622     pos:       -1 fmt:yuv420p sar:0/1 s:1920x1080 i:P iskey:0 type:P checksum:2D85A7D5 plane_checksum:[A175ECC0 AC17D69E 9077E459] mean:[118 123 129] stdev:[49.7 16.2 11.9]
[Motion Debug] Motion detected on Office: [Parsed_showinfo_1 @ 0x56007fe55100] n: 140 pts:   2494 pts_time:623.5   pos:       -1 fmt:yuv420p sar:0/1 s:1920x1080 i:P iskey:0 type:P checksum:7BB0854F plane_checksum:[9C5AD32A FB2B3C91 99627585] mean:[117 122 130] stdev:[50.3 16.2 11.9]
[Motion Debug] Motion detected on Office: [Parsed_showinfo_1 @ 0x56007fe55100] n: 141 pts:   2501 pts_time:625.25  pos:       -1 fmt:yuv420p sar:0/1 s:1920x1080 i:P iskey:0 type:P checksum:348ADA5E plane_checksum:[3ACEAA68 DC24B151 E1357E96] mean:[117 123 129] stdev:[51.9 17.8 13.3]
[Motion Debug] Motion detected on Office: [Parsed_showinfo_1 @ 0x56007fe55100] n: 142 pts:   2502 pts_time:625.5   pos:       -1 fmt:yuv420p sar:0/1 s:1920x1080 i:P iskey:0 type:P checksum:74A96B78 plane_checksum:[EF61834F 28C4C78D F78E208D] mean:[116 123 129] stdev:[51.5 17.8 13.3]
[Motion Debug] Motion detected on Office: [Parsed_showinfo_1 @ 0x56007fe55100] n: 143 pts:   2504 pts_time:626     pos:       -1 fmt:yuv420p sar:0/1 s:1920x1080 i:P iskey:0 type:P checksum:22A9D78F plane_checksum:[AF002E31 51E28D7D BEFA1BE1] mean:[116 124 129] stdev:[51.4 18.0 13.4]
[Motion Debug] Motion detected on Office: [Parsed_showinfo_1 @ 0x56007fe55100] n: 144 pts:   2505 pts_time:626.25  pos:       -1 fmt:yuv420p sar:0/1 s:1920x1080 i:P iskey:0 type:P checksum:B27ECD9B plane_checksum:[E8962571 3B1FD1B8 745CD663] mean:[115 124 129] stdev:[51.6 18.1 13.6]
[Motion Debug] Motion detected on Office: [Parsed_showinfo_1 @ 0x56007fe55100] n: 145 pts:   2506 pts_time:626.5   pos:       -1 fmt:yuv420p sar:0/1 s:1920x1080 i:P iskey:0 type:P checksum:403E85B8 plane_checksum:[D4EE0E39 A7130154 C0A0762B] mean:[116 124 128] stdev:[51.6 18.1 13.7]
[Motion Debug] Motion detected on Office: [Parsed_showinfo_1 @ 0x56007fe55100] n: 146 pts:   2538 pts_time:634.5   pos:       -1 fmt:yuv420p sar:0/1 s:1920x1080 i:P iskey:1 type:I checksum:A728D010 plane_checksum:[FACCBC55 DC6422B7 D09BF0F5] mean:[115 123 128] stdev:[52.4 18.5 14.3]
[Motion Debug] Motion detected on Office: [Parsed_showinfo_1 @ 0x56007fe55100] n: 147 pts:   2598 pts_time:649.5   pos:       -1 fmt:yuv420p sar:0/1 s:1920x1080 i:P iskey:1 type:I checksum:CD829AE6 plane_checksum:[EF933EC8 616F7C02 E789E00D] mean:[114 123 128] stdev:[52.3 18.6 14.3]
[Motion Debug] Motion detected on Office: [Parsed_showinfo_1 @ 0x56007fe55100] n: 148 pts:   2658 pts_time:664.5   pos:       -1 fmt:yuv420p sar:0/1 s:1920x1080 i:P iskey:1 type:I checksum:1FD3A46E plane_checksum:[0796F750 9A37CA89 FA50E277] mean:[115 123 128] stdev:[52.5 18.6 14.2]
[Motion Debug] Motion detected on Office: [Parsed_showinfo_1 @ 0x56007fe55100] n: 149 pts:   2718 pts_time:679.5   pos:       -1 fmt:yuv420p sar:0/1 s:1920x1080 i:P iskey:1 type:I checksum:B2EAA6FC plane_checksum:[FED521E3 A1AA3952 3C494BC7] mean:[115 123 128] stdev:[52.4 18.6 14.3]
[Motion Debug] Motion detected on Office: [Parsed_showinfo_1 @ 0x56007fe55100] n: 150 pts:   2778 pts_time:694.5   pos:       -1 fmt:yuv420p sar:0/1 s:1920x1080 i:P iskey:1 type:I checksum:B61760CB plane_checksum:[8EDC4F42 76D5B6AB BDD65ACF] mean:[114 123 128] stdev:[52.3 18.6 14.3]
[Motion Debug] Motion detected on Office: [Parsed_showinfo_1 @ 0x56007fe55100] n: 151 pts:   2838 pts_time:709.5   pos:       -1 fmt:yuv420p sar:0/1 s:1920x1080 i:P iskey:1 type:I checksum:25DC720C plane_checksum:[A149186F 5C7CF945 16516049] mean:[115 123 128] stdev:[52.3 18.5 14.3]
[Motion Debug] Motion detected on Office: [Parsed_showinfo_1 @ 0x56007fe55100] n: 152 pts:   2839 pts_time:709.75  pos:       -1 fmt:yuv420p sar:0/1 s:1920x1080 i:P iskey:0 type:P checksum:D76AFBA1 plane_checksum:[627C51FF F4BD6488 E899451A] mean:[115 123 128] stdev:[52.3 18.5 14.2]
[Motion Debug] Motion detected on Office: [Parsed_showinfo_1 @ 0x56007fe55100] n: 153 pts:   2898 pts_time:724.5   pos:       -1 fmt:yuv420p sar:0/1 s:1920x1080 i:P iskey:1 type:I checksum:03BBA060 plane_checksum:[BD62244E 36C9A6AF DD49D554] mean:[114 123 128] stdev:[52.3 18.5 14.2]
[Motion Debug] Motion detected on Office: [Parsed_showinfo_1 @ 0x56007fe55100] n: 154 pts:   2899 pts_time:724.75  pos:       -1 fmt:yuv420p sar:0/1 s:1920x1080 i:P iskey:0 type:P checksum:FC832C48 plane_checksum:[D32DE3A5 2F5876BC 6726D1C9] mean:[114 123 128] stdev:[52.3 18.6 14.2]
[Motion Debug] Motion detected on Office: [Parsed_showinfo_1 @ 0x56007fe55100] n: 155 pts:   2958 pts_time:739.5   pos:       -1 fmt:yuv420p sar:0/1 s:1920x1080 i:P iskey:1 type:I checksum:C7F110FD plane_checksum:[6A56A927 58055D51 35FF0A76] mean:[115 123 128] stdev:[52.3 18.5 14.2]
[Motion Debug] Motion detected on Office: [Parsed_showinfo_1 @ 0x56007fe55100] n: 156 pts:   3018 pts_time:754.5   pos:       -1 fmt:yuv420p sar:0/1 s:1920x1080 i:P iskey:1 type:I checksum:8E2E6BA0 plane_checksum:[9C69416A 72F8D6EB 5EC6533C] mean:[114 123 128] stdev:[52.0 18.5 14.2]
[Motion Debug] Motion detected on Office: [Parsed_showinfo_1 @ 0x56007fe55100] n: 157 pts:   3078 pts_time:769.5   pos:       -1 fmt:yuv420p sar:0/1 s:1920x1080 i:P iskey:1 type:I checksum:33078EB0 plane_checksum:[BD02D780 21FDA1A3 3B25157E] mean:[114 123 128] stdev:[52.2 18.5 14.2]
[Motion Debug] Motion detected on Office: [Parsed_showinfo_1 @ 0x56007fe55100] n: 158 pts:   3079 pts_time:769.75  pos:       -1 fmt:yuv420p sar:0/1 s:1920x1080 i:P iskey:0 type:P checksum:895149CB plane_checksum:[0072C14B 615177F8 13E61079] mean:[114 123 128] stdev:[52.2 18.5 14.2]
[Motion Debug] Motion detected on Office: [Parsed_showinfo_1 @ 0x56007fe55100] n: 159 pts:   3138 pts_time:784.5   pos:       -1 fmt:yuv420p sar:0/1 s:1920x1080 i:P iskey:1 type:I checksum:D1F64AE8 plane_checksum:[F78A74AB 16820FB6 631EC678] mean:[114 123 128] stdev:[52.2 18.5 14.2]
[Motion Debug] Motion detected on Office: [Parsed_showinfo_1 @ 0x56007fe55100] n: 160 pts:   3198 pts_time:799.5   pos:       -1 fmt:yuv420p sar:0/1 s:1920x1080 i:P iskey:1 type:I checksum:EA1DA72E plane_checksum:[9BAA59DE 3A2A29F7 621D2359] mean:[114 123 128] stdev:[52.2 18.5 14.2]
[Motion Debug] Motion detected on Office: [Parsed_showinfo_1 @ 0x56007fe55100] n: 161 pts:   3258 pts_time:814.5   pos:       -1 fmt:yuv420p sar:0/1 s:1920x1080 i:P iskey:1 type:I checksum:EC29C950 plane_checksum:[131100F2 986109B4 88C2BEAA] mean:[114 124 128] stdev:[52.1 18.4 14.2]
[Motion Debug] Motion detected on Office: [Parsed_showinfo_1 @ 0x56007fe55100] n: 162 pts:   3318 pts_time:829.5   pos:       -1 fmt:yuv420p sar:0/1 s:1920x1080 i:P iskey:1 type:I checksum:B87ED0B7 plane_checksum:[F581BDB1 700778A8 68829A4F] mean:[114 124 128] stdev:[52.2 18.4 14.2]
[Motion Debug] Motion detected on Office: [Parsed_showinfo_1 @ 0x56007fe55100] n: 163 pts:   3378 pts_time:844.5   pos:       -1 fmt:yuv420p sar:0/1 s:1920x1080 i:P iskey:1 type:I checksum:ED5E3420 plane_checksum:[9AC74C9C 67BDF8FF 652AEE67] mean:[114 123 128] stdev:[52.2 18.4 14.2]
[Motion Debug] Motion detected on Office: [Parsed_showinfo_1 @ 0x56007fe55100] n: 164 pts:   3438 pts_time:859.5   pos:       -1 fmt:yuv420p sar:0/1 s:1920x1080 i:P iskey:1 type:I checksum:F3E05400 plane_checksum:[C57181F2 CF5AA98A 2C882875] mean:[114 123 128] stdev:[52.2 18.5 14.2]
[Motion Debug] Motion detected on Office: [Parsed_showinfo_1 @ 0x56007fe55100] n: 165 pts:   3498 pts_time:874.5   pos:       -1 fmt:yuv420p sar:0/1 s:1920x1080 i:P iskey:1 type:I checksum:A1355C3F plane_checksum:[BFA0835D 87B1A5F4 405832DF] mean:[114 123 128] stdev:[52.3 18.6 14.2]
[Motion Debug] Motion detected on Office: [Parsed_showinfo_1 @ 0x56007fe55100] n: 166 pts:   3558 pts_time:889.5   pos:       -1 fmt:yuv420p sar:0/1 s:1920x1080 i:P iskey:1 type:I checksum:A2C835F6 plane_checksum:[C9CE1595 13B5122C 0FEF0E35] mean:[114 123 128] stdev:[52.1 18.6 14.2]
[Motion Debug] Motion detected on Office: [Parsed_showinfo_1 @ 0x56007fe55100] n: 167 pts:   3618 pts_time:904.5   pos:       -1 fmt:yuv420p sar:0/1 s:1920x1080 i:P iskey:1 type:I checksum:21243818 plane_checksum:[F9CCB0C2 DC3BBEE2 1412C856] mean:[114 123 128] stdev:[52.2 18.5 14.2]
[Motion Debug] Motion detected on Office: [Parsed_showinfo_1 @ 0x56007fe55100] n: 168 pts:   3678 pts_time:919.5   pos:       -1 fmt:yuv420p sar:0/1 s:1920x1080 i:P iskey:1 type:I checksum:65C2D91B plane_checksum:[9E85020A 634AA5D7 BB17313A] mean:[114 123 128] stdev:[52.3 18.6 14.2]
[Motion Debug] Motion detected on Office: [Parsed_showinfo_1 @ 0x56007fe55100] n: 169 pts:   3679 pts_time:919.75  pos:       -1 fmt:yuv420p sar:0/1 s:1920x1080 i:P iskey:0 type:P checksum:05D443F6 plane_checksum:[2F24C77A 0C9352AC E30829C1] mean:[114 123 128] stdev:[52.3 18.6 14.2]
[Motion Debug] Motion detected on Office: [Parsed_showinfo_1 @ 0x56007fe55100] n: 170 pts:   3738 pts_time:934.5   pos:       -1 fmt:yuv420p sar:0/1 s:1920x1080 i:P iskey:1 type:I checksum:C706E297 plane_checksum:[4B1CC660 7F89F34D 6E7128DB] mean:[114 123 128] stdev:[52.2 18.5 14.2]
[Motion Debug] Motion detected on Office: [Parsed_showinfo_1 @ 0x56007fe55100] n: 171 pts:   3798 pts_time:949.5   pos:       -1 fmt:yuv420p sar:0/1 s:1920x1080 i:P iskey:1 type:I checksum:4261EDB2 plane_checksum:[DF28FBA8 A9831D3A 3E26D4C1] mean:[114 123 128] stdev:[52.3 18.6 14.2]
[Motion Debug] Motion detected on Office: [Parsed_showinfo_1 @ 0x56007fe55100] n: 172 pts:   3858 pts_time:964.5   pos:       -1 fmt:yuv420p sar:0/1 s:1920x1080 i:P iskey:1 type:I checksum:346C0863 plane_checksum:[78831D51 558A1DE3 4FDDCD20] mean:[114 123 128] stdev:[52.2 18.5 14.2]
[Motion Debug] Motion detected on Office: [Parsed_showinfo_1 @ 0x56007fe55100] n: 173 pts:   3918 pts_time:979.5   pos:       -1 fmt:yuv420p sar:0/1 s:1920x1080 i:P iskey:1 type:I checksum:55E1936B plane_checksum:[C5C06A01 2360EEC5 53AB3A96] mean:[114 123 128] stdev:[52.2 18.5 14.1]
[Motion Debug] Motion detected on Office: [Parsed_showinfo_1 @ 0x56007fe55100] n: 174 pts:   3978 pts_time:994.5   pos:       -1 fmt:yuv420p sar:0/1 s:1920x1080 i:P iskey:1 type:I checksum:B6281B0A plane_checksum:[EBA3914C 8F5854E3 364834CC] mean:[114 123 128] stdev:[52.1 18.7 14.2]
[Motion Debug] Motion detected on Office: [Parsed_showinfo_1 @ 0x56007fe55100] n: 175 pts:   4038 pts_time:1009.5  pos:       -1 fmt:yuv420p sar:0/1 s:1920x1080 i:P iskey:1 type:I checksum:0751865A plane_checksum:[2193B559 7AAEB824 22CD18CE] mean:[114 123 128] stdev:[52.2 18.4 14.1]
[Motion Debug] Motion detected on Office: [Parsed_showinfo_1 @ 0x56007fe55100] n: 176 pts:   4088 pts_time:1022    pos:       -1 fmt:yuv420p sar:0/1 s:1920x1080 i:P iskey:0 type:P checksum:1B6995B8 plane_checksum:[95DC2F23 631673AF CFC5F2D7] mean:[114 123 129] stdev:[51.9 17.8 13.5]
[Motion Debug] Motion detected on Office: [Parsed_showinfo_1 @ 0x56007fe55100] n: 177 pts:   4096 pts_time:1024    pos:       -1 fmt:yuv420p sar:0/1 s:1920x1080 i:P iskey:0 type:P checksum:ED297C2C plane_checksum:[7E88447C 1FDE1CD6 F31B1ADA] mean:[115 123 129] stdev:[51.5 16.5 12.4]
[Motion Debug] Motion detected on Office: [Parsed_showinfo_1 @ 0x56007fe55100] n: 178 pts:   4098 pts_time:1024.5  pos:       -1 fmt:yuv420p sar:0/1 s:1920x1080 i:P iskey:1 type:I checksum:74B36B28 plane_checksum:[E6FB66C5 FD96E91F 630E1B35] mean:[116 123 129] stdev:[51.3 16.5 12.5]
[Motion Debug] Motion detected on Office: [Parsed_showinfo_1 @ 0x56007fe55100] n: 179 pts:   4099 pts_time:1024.75 pos:       -1 fmt:yuv420p sar:0/1 s:1920x1080 i:P iskey:0 type:P checksum:7D3CC32C plane_checksum:[242D0C9B 401A9BAD A2611AE4] mean:[116 123 129] stdev:[51.2 16.5 12.5]
[Motion Debug] Motion detected on Office: [Parsed_showinfo_1 @ 0x56007fe55100] n: 180 pts:   4100 pts_time:1025    pos:       -1 fmt:yuv420p sar:0/1 s:1920x1080 i:P iskey:0 type:P checksum:CC6E775B plane_checksum:[034D796B 79D9F7F2 C19405EF] mean:[116 123 129] stdev:[51.2 16.8 12.9]
[Motion Debug] Motion detected on Office: [Parsed_showinfo_1 @ 0x56007fe55100] n: 181 pts:   4102 pts_time:1025.5  pos:       -1 fmt:yuv420p sar:0/1 s:1920x1080 i:P iskey:0 type:P checksum:D37031F9 plane_checksum:[ECEFC61C 95483DA8 2CCB2E26] mean:[115 124 129] stdev:[50.4 16.9 13.0]
[Motion Debug] Motion detected on Office: [Parsed_showinfo_1 @ 0x56007fe55100] n: 182 pts:   4106 pts_time:1026.5  pos:       -1 fmt:yuv420p sar:0/1 s:1920x1080 i:P iskey:0 type:P checksum:3383FA15 plane_checksum:[6A38D099 73F5F36C 458F3601] mean:[114 124 128] stdev:[50.9 16.4 12.7]
[Motion Debug] Motion detected on Office: [Parsed_showinfo_1 @ 0x56007fe55100] n: 183 pts:   4108 pts_time:1027    pos:       -1 fmt:yuv420p sar:0/1 s:1920x1080 i:P iskey:0 type:P checksum:F6358E50 plane_checksum:[253C3BF3 62C9026E 445B4FEF] mean:[114 125 128] stdev:[51.5 16.3 12.7]
[Motion Debug] Motion detected on Office: [Parsed_showinfo_1 @ 0x56007fe55100] n: 184 pts:   4109 pts_time:1027.25 pos:       -1 fmt:yuv420p sar:0/1 s:1920x1080 i:P iskey:0 type:P checksum:94434FF3 plane_checksum:[C9DAA88D 299FCE83 B7F8D8C5] mean:[114 125 127] stdev:[51.7 16.2 12.6]
[Motion Debug] Motion detected on Office: [Parsed_showinfo_1 @ 0x56007fe55100] n: 185 pts:   4110 pts_time:1027.5  pos:       -1 fmt:yuv420p sar:0/1 s:1920x1080 i:P iskey:0 type:P checksum:52F88A09 plane_checksum:[B2F41EF0 829AE650 F8A384BA] mean:[114 126 127] stdev:[51.8 16.2 12.6]
[Motion Debug] Motion detected on Office: [Parsed_showinfo_1 @ 0x56007fe55100] n: 186 pts:   4113 pts_time:1028.25 pos:       -1 fmt:yuv420p sar:0/1 s:1920x1080 i:P iskey:0 type:P checksum:BEDDB6A5 plane_checksum:[74EEF237 90E33C00 365F885F] mean:[111 127 126] stdev:[50.3 15.9 12.7]
[Motion Debug] Motion detected on Office: [Parsed_showinfo_1 @ 0x56007fe55100] n: 187 pts:   4114 pts_time:1028.5  pos:       -1 fmt:yuv420p sar:0/1 s:1920x1080 i:P iskey:0 type:P checksum:041E2379 plane_checksum:[03CF5FFF 9CA1D586 413CEDD6] mean:[111 127 126] stdev:[49.6 16.0 12.7]
[Motion Debug] Motion detected on Office: [Parsed_showinfo_1 @ 0x56007fe55100] n: 188 pts:   4116 pts_time:1029    pos:       -1 fmt:yuv420p sar:0/1 s:1920x1080 i:P iskey:0 type:P checksum:44D20166 plane_checksum:[46ADBB1A 8935ED4C 785C58E2] mean:[111 127 126] stdev:[49.2 16.0 12.8]
[Motion Debug] Motion detected on Office: [Parsed_showinfo_1 @ 0x56007fe55100] n: 189 pts:   4117 pts_time:1029.25 pos:       -1 fmt:yuv420p sar:0/1 s:1920x1080 i:P iskey:0 type:P checksum:0E950F99 plane_checksum:[997AD250 685273F4 97DEC937] mean:[110 127 126] stdev:[49.2 15.8 12.7]
[Motion Debug] Motion detected on Office: [Parsed_showinfo_1 @ 0x56007fe55100] n: 190 pts:   4119 pts_time:1029.75 pos:       -1 fmt:yuv420p sar:0/1 s:1920x1080 i:P iskey:0 type:P checksum:8DAE96AE plane_checksum:[52DD3A41 F89415AD 6B9C46C0] mean:[111 127 127] stdev:[49.3 16.1 12.8]
[Motion Debug] Motion detected on Office: [Parsed_showinfo_1 @ 0x56007fe55100] n: 191 pts:   4122 pts_time:1030.5  pos:       -1 fmt:yuv420p sar:0/1 s:1920x1080 i:P iskey:0 type:P checksum:848AC903 plane_checksum:[46B70FD0 625BEE74 72B2CAB0] mean:[113 126 127] stdev:[50.9 16.6 13.1]
[Motion Debug] Motion detected on Office: [Parsed_showinfo_1 @ 0x56007fe55100] n: 192 pts:   4125 pts_time:1031.25 pos:       -1 fmt:yuv420p sar:0/1 s:1920x1080 i:P iskey:0 type:P checksum:96F3182D plane_checksum:[CC3270DE 7F243BE3 2B316B5D] mean:[115 126 127] stdev:[51.9 17.1 13.2]
[Motion Debug] Motion detected on Office: [Parsed_showinfo_1 @ 0x56007fe55100] n: 193 pts:   4158 pts_time:1039.5  pos:       -1 fmt:yuv420p sar:0/1 s:1920x1080 i:P iskey:1 type:I checksum:742692FB plane_checksum:[E96E92F6 5828CCA4 015D3352] mean:[114 123 128] stdev:[52.2 18.4 14.1]
[Motion Debug] Motion detected on Office: [Parsed_showinfo_1 @ 0x56007fe55100] n: 194 pts:   4218 pts_time:1054.5  pos:       -1 fmt:yuv420p sar:0/1 s:1920x1080 i:P iskey:1 type:I checksum:B5341648 plane_checksum:[72EBC908 20A69832 1C98B4F0] mean:[114 123 128] stdev:[52.1 18.6 14.2]
[Motion Debug] Motion detected on Office: [Parsed_showinfo_1 @ 0x56007fe55100] n: 195 pts:   4278 pts_time:1069.5  pos:       -1 fmt:yuv420p sar:0/1 s:1920x1080 i:P iskey:1 type:I checksum:B03DA856 plane_checksum:[F348A113 2913DD08 E5822A2C] mean:[114 123 128] stdev:[52.2 18.5 14.1]
[Motion Debug] Motion detected on Office: [Parsed_showinfo_1 @ 0x56007fe55100] n: 196 pts:   4338 pts_time:1084.5  pos:       -1 fmt:yuv420p sar:0/1 s:1920x1080 i:P iskey:1 type:I checksum:6B54420E plane_checksum:[50FFA0BB 066334A7 3F5B6C9D] mean:[114 123 128] stdev:[52.2 18.5 14.1]
[Motion Debug] Motion detected on Office: [Parsed_showinfo_1 @ 0x56007fe55100] n: 197 pts:   4339 pts_time:1084.75 pos:       -1 fmt:yuv420p sar:0/1 s:1920x1080 i:P iskey:0 type:P checksum:7A86E38E plane_checksum:[AB5F830E 5EE4FAD6 621C659B] mean:[114 123 128] stdev:[52.2 18.5 14.1]
[Motion Debug] Motion detected on Office: [Parsed_showinfo_1 @ 0x56007fe55100] n: 198 pts:   4398 pts_time:1099.5  pos:       -1 fmt:yuv420p sar:0/1 s:1920x1080 i:P iskey:1 type:I checksum:E2CF20F8 plane_checksum:[289EC9C8 ABC15EF5 E556F81D] mean:[114 123 128] stdev:[52.2 18.4 14.1]
[Motion Debug] Motion detected on Office: [Parsed_showinfo_1 @ 0x56007fe55100] n: 199 pts:   4458 pts_time:1114.5  pos:       -1 fmt:yuv420p sar:0/1 s:1920x1080 i:P iskey:1 type:I checksum:037A50EA plane_checksum:[8E2AFD9B 8CDB506C 0A6B02D4] mean:[114 123 128] stdev:[52.0 18.6 14.1]
[Motion Debug] Motion detected on Office: [Parsed_showinfo_1 @ 0x56007fe55100] n: 200 pts:   4518 pts_time:1129.5  pos:       -1 fmt:yuv420p sar:0/1 s:1920x1080 i:P iskey:1 type:I checksum:8F0A83FB plane_checksum:[ACBE169E 930A51B5 1CDE1BA8] mean:[114 123 128] stdev:[52.1 18.7 14.2]
[Motion Debug] Motion detected on Office: [Parsed_showinfo_1 @ 0x56007fe55100] n: 201 pts:   4578 pts_time:1144.5  pos:       -1 fmt:yuv420p sar:0/1 s:1920x1080 i:P iskey:1 type:I checksum:F85761E7 plane_checksum:[086E478D B24ACE9B 618E4BB0] mean:[114 123 128] stdev:[52.2 18.7 14.2]
[Motion Debug] Motion detected on Office: [Parsed_showinfo_1 @ 0x56007fe55100] n: 202 pts:   4579 pts_time:1144.75 pos:       -1 fmt:yuv420p sar:0/1 s:1920x1080 i:P iskey:0 type:P checksum:42310790 plane_checksum:[409F366D 21968903 C0004811] mean:[114 123 128] stdev:[52.2 18.7 14.2]
[Motion Debug] Motion detected on Office: [Parsed_showinfo_1 @ 0x56007fe55100] n: 203 pts:   4638 pts_time:1159.5  pos:       -1 fmt:yuv420p sar:0/1 s:1920x1080 i:P iskey:1 type:I checksum:9A3BD1E4 plane_checksum:[7C0ECC2D F13B5444 FF46B164] mean:[114 123 128] stdev:[52.1 18.6 14.2]
[Motion Debug] Motion detected on Office: [Parsed_showinfo_1 @ 0x56007fe55100] n: 204 pts:   4698 pts_time:1174.5  pos:       -1 fmt:yuv420p sar:0/1 s:1920x1080 i:P iskey:1 type:I checksum:AEDEB166 plane_checksum:[2E049622 9B924B8D 728BCFA8] mean:[114 124 128] stdev:[52.0 18.6 14.1]
[Motion Debug] Motion detected on Office: [Parsed_showinfo_1 @ 0x56007fe55100] n: 205 pts:   4758 pts_time:1189.5  pos:       -1 fmt:yuv420p sar:0/1 s:1920x1080 i:P iskey:1 type:I checksum:F33B63F8 plane_checksum:[E92E58D2 5001BC4F E84E4EC8] mean:[114 124 128] stdev:[51.9 18.6 14.2]
[Motion Debug] Motion detected on Office: [Parsed_showinfo_1 @ 0x56007fe55100] n: 206 pts:   4818 pts_time:1204.5  pos:       -1 fmt:yuv420p sar:0/1 s:1920x1080 i:P iskey:1 type:I checksum:B3487AB0 plane_checksum:[D6EC1F80 9810C1EC 5CDF9935] mean:[114 124 128] stdev:[52.1 18.6 14.3]
[Motion Debug] Motion detected on Office: [Parsed_showinfo_1 @ 0x56007fe55100] n: 207 pts:   4878 pts_time:1219.5  pos:       -1 fmt:yuv420p sar:0/1 s:1920x1080 i:P iskey:1 type:I checksum:C81577B0 plane_checksum:[1A5A3727 DFABC19B D9187EDF] mean:[114 124 128] stdev:[52.0 18.6 14.2]
[Motion Debug] Motion detected on Office: [Parsed_showinfo_1 @ 0x56007fe55100] n: 208 pts:   4938 pts_time:1234.5  pos:       -1 fmt:yuv420p sar:0/1 s:1920x1080 i:P iskey:1 type:I checksum:428A9784 plane_checksum:[42FD64DB 336BA6AA A5858BF0] mean:[114 124 128] stdev:[52.0 18.5 14.2]
[Motion Debug] Motion detected on Office: [Parsed_showinfo_1 @ 0x56007fe55100] n: 209 pts:   4998 pts_time:1249.5  pos:       -1 fmt:yuv420p sar:0/1 s:1920x1080 i:P iskey:1 type:I checksum:CD166E18 plane_checksum:[21916C92 681F4C70 75AEB507] mean:[114 124 128] stdev:[51.9 18.6 14.2]
[Motion Debug] Motion detected on Office: [Parsed_showinfo_1 @ 0x56007fe55100] n: 210 pts:   4999 pts_time:1249.75 pos:       -1 fmt:yuv420p sar:0/1 s:1920x1080 i:P iskey:0 type:P checksum:4C19FF19 plane_checksum:[2D003DD2 E4A30671 CF4CBAD6] mean:[114 123 128] stdev:[52.0 18.6 14.2]
